<svg enable-background="new 0 0 1200 180" viewBox="0 0 1200 180" xmlns="http://www.w3.org/2000/svg"><path d="m1169.8 180h-1139.6c-16.6 0-30.2-13.6-30.2-30.2v-119.6c0-16.6 13.6-30.2 30.2-30.2h1139.6c16.6 0 30.2 13.6 30.2 30.2v119.6c0 16.6-13.6 30.2-30.2 30.2z" fill="#b2fce4"/><g enable-background="new"><path d="m172.4 81c-1.2-4.3-4.8-7-10.3-7-5 0-8.6 1.9-8.6 5 0 3.6 4.1 4.8 10.9 5.8 9.7 1.3 16.6 4.2 16.6 12.7 0 9.2-8.2 13.9-18.2 13.9-9.2 0-17.4-4.3-18.1-14.3h8.3c.8 4 4.5 7.1 10.3 7.1 5.2 0 9.2-2 9.2-5.8 0-4.6-5.1-5.6-12-6.5-8.6-1.2-15.4-3.5-15.4-11.6s7-13.4 17.5-13.4c10 0 17 5.4 18 14.1z"/><path d="m204.8 110.9v-19.9c0-3.5-2.4-5.4-5.6-5.4-3.3 0-5.9 2.1-5.9 5.4v20h-8.1v-43.7h8.1v15.2c1.3-1.9 4.1-4.2 8.6-4.2 6.8 0 10.9 4.4 10.9 11.2v21.4z"/><path d="m234.6 111.4c-9.5 0-16.8-7.1-16.8-16.5s7.2-16.6 16.8-16.6c9.5 0 16.8 7.2 16.8 16.6s-7.3 16.5-16.8 16.5zm8.6-16.5c0-5.2-3.9-9.1-8.6-9.1s-8.7 3.9-8.7 9.1 4 9.1 8.7 9.1 8.6-4 8.6-9.1z"/><path d="m256.2 122.6v-43.7h7.9v4.1c2.4-2.9 5.9-4.7 10.1-4.7 8.6 0 15.4 7.1 15.4 16.5s-6.9 16.6-15.6 16.6c-4 0-7.4-1.6-9.7-4.3v15.6h-8.1zm25.4-27.7c0-5.2-3.9-9.2-8.7-9.2s-8.7 3.8-8.7 9.2c0 5.2 3.9 9.2 8.7 9.2 4.8-.1 8.7-4.1 8.7-9.2z"/><path d="m325.6 110.9v-19.9c0-3.5-2.4-5.4-5.6-5.4-3.3 0-5.9 2.1-5.9 5.4v20h-8.1v-32h7.9v4c1.2-1.9 4.1-4.6 8.9-4.6 6.8 0 10.9 4.4 10.9 11.2v21.4h-8.1z"/><path d="m355.4 111.4c-9.5 0-16.8-7.1-16.8-16.5s7.2-16.6 16.8-16.6c9.5 0 16.8 7.2 16.8 16.6s-7.4 16.5-16.8 16.5zm8.6-16.5c0-5.2-3.9-9.1-8.6-9.1s-8.7 3.9-8.7 9.1 4 9.1 8.7 9.1 8.6-4 8.6-9.1z"/><path d="m403.8 110.9-6.6-19.9h-.2l-6.8 19.8h-7.4l-9.5-32h8.4l6 20.7h.1l6.8-20.7h5.7l6.5 20.9h.1l6.2-20.9h8.2l-10 32h-7.5z"/><path d="m464.3 110.9-6.5-19.9h-.2l-6.8 19.8h-7.4l-9.5-32h8.4l6 20.7h.1l6.8-20.7h5.7l6.5 20.9h.1l6.2-20.9h8.2l-10 32h-7.6z"/><path d="m485.2 70.3c0-2.4 2.1-4.6 4.6-4.6s4.6 2.2 4.6 4.6c0 2.5-2.1 4.6-4.6 4.6s-4.6-2.1-4.6-4.6zm.5 40.6v-32h8.1v32z"/><path d="m511.1 110.9c-6.5 0-9-2.8-9-9.3v-15.8h-4.2v-7h4.2v-7.8h8.1v7.8h5.1v7h-5.1v14.2c0 2.7.8 3.7 3.5 3.7h1.6v7.1h-4.2z"/><path d="m539.4 110.9v-19.9c0-3.5-2.4-5.4-5.6-5.4-3.3 0-5.9 2.1-5.9 5.4v20h-8.1v-43.7h8.1v15.2c1.3-1.9 4.1-4.2 8.6-4.2 6.8 0 10.9 4.4 10.9 11.2v21.4z"/></g><path d="m1059.5 61.8-14.8-8.5-15-8.6c-9.9-5.7-22.3 1.5-22.3 12.9v1.9c0 1.1.6 2 1.5 2.6l7 4c1.9 1.1 4.3-.3 4.3-2.5v-4.6c0-2.3 2.5-3.7 4.4-2.6l13.7 7.9 13.7 7.8c2 1.1 2 4 0 5.1l-13.7 7.8-13.7 7.9c-2 1.1-4.4-.3-4.4-2.6v-2.3c0-11.5-12.4-18.7-22.3-12.9l-15 8.6-14.9 8.7c-10 5.7-10 20.2 0 25.9l14.8 8.5 15 8.6c9.9 5.7 22.3-1.5 22.3-12.9v-1.9c0-1.1-.6-2-1.5-2.6l-7-4c-1.9-1.1-4.3.3-4.3 2.5v4.6c0 2.3-2.5 3.7-4.4 2.6l-13.7-7.9-13.7-7.8c-2-1.1-2-4 0-5.1l13.7-7.8 13.7-7.9c2-1.1 4.4.3 4.4 2.6v2.1c0 11.5 12.4 18.7 22.3 12.9l15-8.6 14.8-8.5c10.1-5.7 10.1-20.1.1-25.9"/><path d="m962.3 64.7-34.7 71.6h-14.4l13-26.8-20.4-44.8h14.7l13.1 30 14.3-30z"/><path d="m615.5 90.1c0-8.5-6.2-14.5-13.8-14.5s-13.8 6.1-13.8 14.5c0 8.3 6.2 14.6 13.8 14.6s13.8-6.1 13.8-14.6m.1 25.4v-6.6c-3.8 4.6-9.4 7.4-16.1 7.4-13.9 0-24.5-11.2-24.5-26.3 0-15 11-26.4 24.8-26.4 6.5 0 12 2.9 15.8 7.3v-6.4h12.5v50.9z"/><path d="m688.9 104.2c-4.4 0-5.6-1.6-5.6-5.9v-22.5h8v-11.1h-8v-12.5h-12.8v12.4h-16.5v-5.1c0-4.3 1.6-5.9 6.1-5.9h2.8v-9.9h-6.2c-10.6 0-15.6 3.5-15.6 14v6.8h-7.1v11.1h7.1v39.8h12.9v-39.6h16.5v24.9c0 10.4 4 14.9 14.3 14.9h6.6v-11.4z"/><path d="m734.9 85.5c-.9-6.6-6.3-10.6-12.6-10.6s-11.5 3.9-12.8 10.6zm-25.5 8c.9 7.5 6.3 11.8 13.1 11.8 5.4 0 9.6-2.5 12-6.6h13.1c-3.1 10.8-12.7 17.7-25.4 17.7-15.4 0-26.1-10.8-26.1-26.1 0-15.4 11.4-26.5 26.5-26.5 15.2 0 26.1 11.2 26.1 26.5 0 1.1-.1 2.2-.3 3.3h-39z"/><path d="m830.2 90.1c0-8.2-6.2-14.6-13.8-14.6s-13.8 6.1-13.8 14.6c0 8.3 6.2 14.6 13.8 14.6 7.6-.1 13.8-6.4 13.8-14.6m-40.3 46.2v-71.6h12.5v6.6c3.8-4.7 9.4-7.5 16.1-7.5 13.7 0 24.5 11.3 24.5 26.3s-11 26.4-24.8 26.4c-6.4 0-11.7-2.5-15.4-6.8v26.8h-12.9z"/><path d="m888.1 90.1c0-8.5-6.2-14.5-13.8-14.5s-13.8 6.1-13.8 14.5c0 8.3 6.2 14.6 13.8 14.6 7.6-.1 13.8-6.1 13.8-14.6m.1 25.4v-6.6c-3.8 4.6-9.4 7.4-16.1 7.4-13.9 0-24.5-11.2-24.5-26.3 0-15 11-26.4 24.8-26.4 6.5 0 12 2.9 15.8 7.3v-6.4h12.5v50.9z"/><path d="m767.3 69.6s3.2-5.9 11-5.9c3.3 0 5.5 1.1 5.5 1.1v13s-4.7-2.9-9-2.3-7.1 4.6-7 9.9v30.1h-12.9v-50.8h12.5z"/></svg> 