<?xml version="1.0" encoding="utf-8"?>
<!-- Generator: Adobe Illustrator 25.0.0, SVG Export Plug-In . SVG Version: 6.00 Build 0)  -->
<svg version="1.1" id="Layer_3" xmlns="http://www.w3.org/2000/svg" xmlns:xlink="http://www.w3.org/1999/xlink" x="0px" y="0px"
	 viewBox="0 0 1000 600" style="enable-background:new 0 0 1000 600;" xml:space="preserve">
<style type="text/css">
	.st0{fill:#FFD200;stroke:#FFD200;stroke-miterlimit:10;}
	.st1{fill:#FFD200;}
</style>
<g>
	<g>
		<path class="st0" d="M311.2,158.2v15.7h-42.9h-4v4v19v4h4h36.1v15.7h-36.1h-4v4v37.8h-18.6V158.2H311.2 M315.2,154.2h-73.5v108.2
			h26.6v-41.8h40.1v-23.7h-40.1v-19h46.9V154.2L315.2,154.2z"/>
		<path class="st0" d="M375.1,158.2c22.6,0,32.9,16,32.9,30.8c0,15.8-11.8,22.9-15.4,24.7l-3.6,1.8l1.9,3.6l20.4,39.3h-21.7
			l-18.1-38l-1.1-2.3h-2.5h-9h-4v4v36.3h-18.6V158.2H375.1 M354.8,204h4h15c10.1,0,15.5-7.7,15.5-14.9c0-7.2-5.4-14.9-15.5-14.9h-15
			h-4v4V200V204 M375.1,154.2h-42.8v108.2h26.6v-40.3h9l19.1,40.3h30.8l-23.4-45.1c8.5-4.3,17.6-13.5,17.6-28.3
			C412,171.3,399.1,154.2,375.1,154.2L375.1,154.2z M358.8,200v-21.9h15c7.3,0,11.5,5.3,11.5,10.9c0,5.6-4.3,10.9-11.5,10.9H358.8
			L358.8,200z"/>
		<path class="st0" d="M453.9,158.2v100.2h-18.6V158.2H453.9 M457.9,154.2h-26.6v108.2h26.6V154.2L457.9,154.2z"/>
		<path class="st0" d="M519.9,158.2c7.7,0,18.5,1.6,26.3,9.5c10.3,10.3,10.2,21.7,10.1,36c0,1.5,0,3,0,4.6c0,1.6,0,3.1,0,4.6
			c0.1,14.4,0.2,25.8-10.1,36c-7.8,7.8-18.6,9.5-26.3,9.5h-36.1V158.2H519.9 M502.3,242.7h4H518c7.3,0,12.5-2.6,16.1-7.8
			c2.8-4,3.6-7.8,3.6-26.6c0-18.7-0.8-22.5-3.6-26.6c-3.5-5.3-8.8-7.8-16.1-7.8h-11.7h-4v4v60.8V242.7 M519.9,154.2h-40.1v108.2
			h40.1c11.2,0,21.7-3.2,29.2-10.6c12.6-12.6,11.2-26.4,11.2-43.5c0-17,1.4-30.8-11.2-43.5C541.6,157.4,531.1,154.2,519.9,154.2
			L519.9,154.2z M506.3,238.7v-60.8H518c6.7,0,10.3,2.4,12.8,6.1c2.1,3,2.9,6.1,2.9,24.3c0,18.4-0.8,21.3-2.9,24.3
			c-2.4,3.6-6.1,6.1-12.8,6.1H506.3L506.3,238.7z"/>
		<path class="st0" d="M623.2,158.2l36.4,100.2h-19.1l-4.1-13.3l-0.9-2.8h-2.9h-33.3h-2.9l-0.9,2.7l-4.4,13.4h-19.2l36.4-100.2
			H623.2 M601.2,228.1h5.6h18.8h5.5l-1.6-5.2l-9.1-28.9l-3.7-11.7l-3.9,11.6l-9.7,28.9L601.2,228.1 M626.1,154.2h-20.5l-39.4,108.2
			H594l5.3-16.1h33.3l5,16.1h27.8L626.1,154.2L626.1,154.2z M606.8,224.1l9.7-28.9l9.1,28.9H606.8L606.8,224.1z"/>
		<path class="st0" d="M745.5,158.2l-29.7,58.3l-0.4,0.9v1v40.1h-18.6v-40.1v-1l-0.4-0.9l-29.7-58.3h19.9l16,36.5l3.7,8.4l3.7-8.4
			l15.8-36.5H745.5 M752,154.2h-29l-16.9,38.9l-17-38.9h-29l32.7,64.1v44.1h26.6v-44.1L752,154.2L752,154.2z"/>
	</g>
	<g>
		<path class="st1" d="M200.7,580.2v-8.9l15.5-16.8c1.6-1.7,2.2-2.8,2.2-4.6c0-2.3-1.3-4-3.8-4c-1.8,0-4,0.8-4,4.1h-9.8
			c0-8.4,6.4-13,13.8-13c7.9,0,13.7,4.9,13.7,12.9c0,4.5-1.9,6.9-5.3,10.5l-10.2,10.8h15.5v8.9H200.7z"/>
		<path class="st1" d="M248.9,580.2h-10.8l13.3-33.8h-9.1v6.7H233v-15.6h29.3v8.9L248.9,580.2z"/>
		<path class="st1" d="M278.7,580.2c-7.1,0-10-5.1-10-9.5v-13.9h-2.9v-7.6h2.9V540h9.8v9.2h5.1v7.6h-5.1V570c0,1.3,0.7,2,2,2h3.1
			v8.3H278.7z"/>
		<path class="st1" d="M307.2,580.2v-19.6c0-3.5-2.5-4.2-3.8-4.2s-3.8,0.7-3.8,4.2v19.6h-9.8v-42.7h9.8v13.1c2-2,4.6-3,7.1-3
			c7,0,10.3,5.2,10.3,11.7v20.9H307.2z"/>
		<path class="st1" d="M336.7,567.2v-9.2h19.7v9.2H336.7z"/>
		<path class="st1" d="M389.4,580.6c-7.1,0-14.2-3.8-14.2-13.4h9.8c0,3,1.9,4.5,4.4,4.5c2.6,0,4.4-1.5,4.4-4.6
			c0-2.6-1.9-4.5-4.6-4.5h-1.4v-8.5h1.4c2.9,0,4.1-2.1,4.1-4c0-2.7-1.9-4.1-3.9-4.1s-3.9,1.4-3.9,4h-9.8c0-8,6.1-12.9,13.7-12.9
			c7.9,0,13.7,5.3,13.7,12.7c0,4.7-2.3,7-4.4,8.3c2.3,1.6,4.9,4.2,4.9,9.3C403.6,576.4,396.9,580.6,389.4,580.6z"/>
		<path class="st1" d="M422.7,580.6c-7.1,0-13.7-4.5-13.7-13.3v-16.8c0-8.8,6.7-13.3,13.7-13.3c7.1,0,13.7,4.5,13.7,13.3v16.8
			C436.4,576.1,429.8,580.6,422.7,580.6z M426.6,550.5c0-3-1.8-4.4-3.9-4.4c-2.1,0-3.9,1.4-3.9,4.4v16.9c0,3,1.8,4.4,3.9,4.4
			c2.1,0,3.9-1.4,3.9-4.4V550.5z"/>
		<path class="st1" d="M453.8,580.2c-7.1,0-10-5.1-10-9.5v-13.9h-2.9v-7.6h2.9V540h9.8v9.2h5.1v7.6h-5.1V570c0,1.3,0.7,2,2,2h3.1
			v8.3H453.8z"/>
		<path class="st1" d="M482.3,580.2v-19.6c0-3.5-2.5-4.2-3.8-4.2s-3.8,0.7-3.8,4.2v19.6h-9.8v-42.7h9.8v13.1c2-2,4.6-3,7.1-3
			c7,0,10.3,5.2,10.3,11.7v20.9H482.3z"/>
		<path class="st1" d="M537.3,580.2l-13.7-21.5v21.5h-10.5v-42.7h9.2L536,559v-21.5h10.5v42.7H537.3z"/>
		<path class="st1" d="M577.7,576.5c-1.9,2-5.2,4.1-10.4,4.1s-8.5-2.1-10.4-4.1c-2.7-2.9-3.5-6-3.5-12.4c0-6.3,0.8-9.4,3.5-12.4
			c1.9-2,5.2-4.1,10.4-4.1s8.5,2.1,10.4,4.1c2.7,2.9,3.5,6.1,3.5,12.4C581.3,570.5,580.4,573.5,577.7,576.5z M570,557.4
			c-0.6-0.6-1.4-0.9-2.6-0.9c-1.2,0-2,0.3-2.6,0.9c-1.3,1.3-1.4,3.5-1.4,6.7s0.2,5.5,1.4,6.7c0.6,0.6,1.4,0.9,2.6,0.9
			c1.2,0,2-0.3,2.6-0.9c1.3-1.3,1.4-3.5,1.4-6.7S571.2,558.6,570,557.4z"/>
		<path class="st1" d="M602.6,580.2h-7.5L583.2,548h10.3l5.3,16.7l5.3-16.7h10.3L602.6,580.2z"/>
		<path class="st1" d="M625.8,567.3c0,2.6,2,5,5.7,5c3.4,0,4.9-1,6.7-2.7l5.9,5.9c-3.3,3.3-6.5,5.1-12.5,5.1
			c-7.1,0-15.4-2.6-15.4-16.5c0-10.6,6-16.5,14.5-16.5c9.4,0,14.5,6.8,14.5,15.3v4.4H625.8z M634.9,558.2c-0.6-1.4-1.9-2.5-4.3-2.5
			s-3.7,1.1-4.3,2.5c-0.4,0.8-0.5,1.7-0.5,2.5h9.6C635.4,560,635.3,559.1,634.9,558.2z"/>
		<path class="st1" d="M686.7,580.2v-19.3c0-3.7-2.6-4.4-4-4.4c-1.3,0-4,0.7-4,4.4v19.3h-9.8v-19.3c0-3.7-2.6-4.4-4-4.4
			c-1.3,0-4,0.7-4,4.4v19.3h-9.8V548h9.6v2.6c2-2,4.9-3,7.5-3c3.2,0,5.8,1,7.9,3.4c2.8-2.5,5.4-3.4,9.1-3.4c3.1,0,6,1,7.7,2.8
			c2.8,2.8,3.5,5.8,3.5,9.2v20.6H686.7z"/>
		<path class="st1" d="M728.5,577.7c-1.9,1.9-4.7,2.9-7.9,2.9c-3.4,0-5.5-1-7.4-3v2.6h-9.5v-42.7h9.8v12.8c1.8-1.8,4-2.7,7.2-2.7
			c3.1,0,5.9,1.1,7.8,2.9c3.2,3.2,3,8.8,3,13.6C731.5,568.8,731.7,574.5,728.5,577.7z M717.6,556.5c-3.7,0-4.1,2.9-4.1,7.6
			s0.4,7.6,4.1,7.6c3.7,0,4.1-2.9,4.1-7.6S721.2,556.5,717.6,556.5z"/>
		<path class="st1" d="M746,567.3c0,2.6,2,5,5.7,5c3.4,0,4.9-1,6.7-2.7l5.9,5.9c-3.3,3.3-6.5,5.1-12.5,5.1
			c-7.1,0-15.4-2.6-15.4-16.5c0-10.6,6-16.5,14.5-16.5c9.4,0,14.5,6.8,14.5,15.3v4.4H746z M755.1,558.2c-0.6-1.4-1.9-2.5-4.3-2.5
			s-3.7,1.1-4.3,2.5c-0.4,0.8-0.5,1.7-0.5,2.5h9.6C755.6,560,755.5,559.1,755.1,558.2z"/>
		<path class="st1" d="M788.7,558.2c-1-1-1.9-1.7-3.5-1.7c-1.3,0-4,0.8-4,4.4v19.3h-9.8V548h9.6v2.6c1.4-1.4,4.3-3,7.6-3
			c3.2,0,5.3,0.8,7.6,3L788.7,558.2z"/>
	</g>
	<g>
		<path class="st1" d="M196,488.9c-29.9,0-54.4-5.5-74.2-25.8l30.8-30.8c10.2,10.2,28,13.7,43.7,13.7c19,0,28-6.3,28-17.6
			c0-4.7-1.1-8.5-3.8-11.5c-2.5-2.5-6.6-4.4-12.9-5.2l-23.6-3.3c-17.3-2.5-30.5-8.2-39.3-17.3c-9.1-9.3-13.5-22.5-13.5-39.3
			c0-35.7,26.9-61.8,71.4-61.8c28,0,49.2,6.6,65.9,23.3l-30.2,30.2c-12.4-12.4-28.6-11.5-37.1-11.5c-16.8,0-23.6,9.6-23.6,18.1
			c0,2.5,0.8,6,3.8,9.1c2.5,2.5,6.6,4.9,13.5,5.8l23.6,3.3c17.6,2.5,30.2,8,38.5,16.2c10.4,10.2,14.6,24.7,14.6,42.8
			C271.5,467.2,237.2,488.9,196,488.9z"/>
		<path class="st1" d="M412.4,487.3l-9.1-29.1h-60.2l-9.6,29.1h-50.3l71.1-195.6h37.1l71.1,195.6H412.4z M374.2,365.9L356.6,418
			h34.1L374.2,365.9z"/>
		<path class="st1" d="M482.4,487.3V291.7h48.1v152.7h82.1v42.8H482.4z"/>
		<path class="st1" d="M640.6,487.3V291.7h132.9v42.8h-84.9v32.7h72.5v42.8h-72.5v34.3h84.9v42.8H640.6z"/>
		<path class="st1" d="M859.8,422.2h-32.4l-12.1-130.5h56.6L859.8,422.2z M820.5,487.3V443h46.1v44.2H820.5z"/>
	</g>
	<g>
		<path class="st1" d="M316.1,78.3c4.2-3,12.5-10.6,12.5-23.3c0-21.7-14.2-34.6-38.1-34.6h-49.3v0L44,20.4c-4.7,0-9,1.8-12.3,5.1
			c-3.3,3.3-5.1,7.7-5.1,12.3V133v136.6V548c0,9.6,7.8,17.5,17.5,17.5h122.7c1.1,0,2-0.9,2-2s-0.9-2-2-2H44c-7.4,0-13.5-6-13.5-13.5
			V269.5V133V37.8c0-3.6,1.4-7,3.9-9.5c2.5-2.5,5.9-3.9,9.5-3.9l197.1,0v114.9H293c22.6,0,37.3-13.8,37.3-35.3
			C330.3,87.8,321.1,81.5,316.1,78.3z M271.2,47.4h17.5c9,0,9.9,6.4,9.9,9.1s-1,9.1-9.9,9.1h-17.5V47.4z M290.2,112.3h-19V92.6h19
			c9.4,0,10.1,7.5,10.1,9.8C300.3,104.7,299.6,112.3,290.2,112.3z"/>
		<polygon class="st1" points="379.3,20.4 349.3,20.4 349.3,139.3 428.8,139.3 428.8,112.5 379.3,112.5 		"/>
		<path class="st1" d="M498.8,20.4h-23.1l-43.3,118.9h31.4l5.8-17.6h35.5l5.5,17.6h31.4L499,20.7L498.8,20.4z M478.2,96.6l9.9-29.3
			l9.3,29.3H478.2z"/>
		<path class="st1" d="M592.7,46.2c7.8,0,12.3,3.8,14.6,12.2l0.1,0.4h30.4l-0.1-0.6c-4-24.3-20.9-38.8-45.2-38.8
			c-13.3,0-24.1,4.4-33.1,13.4c-12.1,12.1-12.1,28.1-12.1,45.1l0,2l0,2c0,17,0,33,12.1,45.1c9,9,19.9,13.4,33.1,13.4
			c24.3,0,41.2-14.5,45.2-38.8l0.1-0.6h-30.4l-0.1,0.4c-2.3,8.4-6.8,12.2-14.6,12.2c-4.7,0-8.7-1.7-11-4.8
			c-2.6-3.4-4.4-7.4-4.4-28.8s1.8-25.5,4.4-28.8C584,48,588,46.2,592.7,46.2z"/>
		<path class="st1" d="M968.3,25.5c-3.3-3.3-7.7-5.1-12.3-5.1l-204.2,0l0,0H715l-33.4,40.8V20.4H652v118.9h29.6v-37.2l9.3-10.7
			l26.8,47.7l0.1,0.3h35L711,68.6l37.3-44.2l207.6,0c3.6,0,7,1.4,9.5,3.9c2.5,2.5,3.9,5.9,3.9,9.5v94.4c-0.1,0.2-0.1,0.4-0.1,0.7
			v415c0,7.4-6,13.5-13.5,13.5H833.2c-1.1,0-2,0.9-2,2s0.9,2,2,2h122.7c9.6,0,17.5-7.8,17.5-17.5V270.2c0.1-0.2,0.1-0.4,0.1-0.7
			V37.8C973.4,33.2,971.6,28.8,968.3,25.5z"/>
	</g>
</g>
</svg>
