<svg xmlns="http://www.w3.org/2000/svg" xmlns:xlink="http://www.w3.org/1999/xlink" width="852" height="107" viewBox="0 0 852 107">
  <defs>
    <clipPath id="clip-path">
      <rect id="Rectangle_1" data-name="Rectangle 1" width="852" height="107" transform="translate(348 204)" fill="#fff"/>
    </clipPath>
  </defs>
  <g id="Mask_Group_1" data-name="Mask Group 1" transform="translate(-348 -204)" clip-path="url(#clip-path)">
    <g id="Group_2" data-name="Group 2" transform="translate(-12.728 -0.129)">
      <path id="Path_18" data-name="Path 18" d="M126.673,13.243c0,.651-.116,1.105-.107,1.568a70.466,70.466,0,0,1-.16,8.224,3.329,3.329,0,0,0,0,.517A58.189,58.189,0,0,1,125.6,33.8a22.253,22.253,0,0,1-.65,2.681c-.5,2.007-.89,4.038-1.512,6.029a59.291,59.291,0,0,1-3.684,9.761,57.818,57.818,0,0,1-4.449,7.44c-.89,1.215-1.611,2.485-2.518,3.669a82.2,82.2,0,0,1-6.416,7.33c-1.317,1.333-2.839,2.509-4.209,3.8a21.613,21.613,0,0,1-2.937,2.242c-.836.549-1.611,1.16-2.412,1.74a32.641,32.641,0,0,1-5.339,3.136,45.541,45.541,0,0,1-10.438,3.214q-.373.1-.757.157a1.239,1.239,0,0,0-1.157,1.019,49.4,49.4,0,0,1-1.664,5.1,11.042,11.042,0,0,1-.89,1.905,57.863,57.863,0,0,1-4.948,6.985c-.988,1.27-2.073,2.485-3.114,3.724-1.317,1.568-3.035,2.822-4.449,4.3a69.071,69.071,0,0,1-6.229,5.386,14.027,14.027,0,0,1-1.228.839c-.89.541-1.7,1.058-2.545,1.568a40.114,40.114,0,0,1-9.433,4.383,105.842,105.842,0,0,1-13.464,3.418A67.994,67.994,0,0,1,22.87,124.7c-1.032.055-2.064.227-3.1.282a87.293,87.293,0,0,1-9.922.11q-3.105-.2-6.229-.564A19.263,19.263,0,0,1,.8,123.866.987.987,0,0,1,.009,122.8c.071-1.317.151-2.626.276-3.92a1.241,1.241,0,0,1,.528-.981A1.614,1.614,0,0,1,2,117.617a16.015,16.015,0,0,1,1.94.157,77.179,77.179,0,0,0,8.9.612c2.011.071,4.022.055,6.033.133a48.944,48.944,0,0,0,17.254-2.509c2.741-.878,5.446-1.866,8.08-2.964a41.914,41.914,0,0,0,8.409-4.626,81.827,81.827,0,0,0,8.676-7.37,41.94,41.94,0,0,0,7.226-9.1,61.772,61.772,0,0,0,2.67-5.7.823.823,0,0,0,.062-.5.626.626,0,0,0-.294-.4,3.916,3.916,0,0,0-.89-.243,27.612,27.612,0,0,1-6.6-2.007,31.045,31.045,0,0,1-10.1-6.593c-.463-.47-.988-.91-1.45-1.38a16.8,16.8,0,0,1-4.049-8.075,6.9,6.9,0,0,1-.178-1.709c0-1.254.08-2.517.169-3.771a11.563,11.563,0,0,1,1.059-4c.2-.423.365-.855.534-1.286a7.474,7.474,0,0,1,2.767-3.457A46.822,46.822,0,0,1,57.3,49.652a15.627,15.627,0,0,1,7.857-1.568c1.29,0,2.581.235,3.88.314a17.324,17.324,0,0,1,5.553,1.5,11.945,11.945,0,0,1,3.471,2.438,20.965,20.965,0,0,1,4.307,6.272,7.868,7.868,0,0,1,.658,1.968,26.1,26.1,0,0,1,.507,7.009c-.222,3.254-.667,6.492-1.2,9.714-.053.282-.071.572-.1.855a.382.382,0,0,0,.157.3.5.5,0,0,0,.359.093,14.653,14.653,0,0,0,1.664-.439,36.734,36.734,0,0,0,7.733-3.583,21.58,21.58,0,0,0,2.536-1.858c1.05-.933,2.234-1.748,3.3-2.658,2.99-2.548,5.677-5.331,8.365-8.114a26.683,26.683,0,0,0,3.4-4.383q1.37-2.18,2.741-4.351a41.138,41.138,0,0,0,5.055-11.486c.427-1.615.81-3.238,1.246-4.853a19.335,19.335,0,0,0,.561-3.92c.241-3.653.579-7.3.837-10.976a49.618,49.618,0,0,0,.2-7.715.666.666,0,0,0-.294-.368,1.452,1.452,0,0,0-.32.118,2.57,2.57,0,0,0-.284.235c-1.21,1.035-2.438,2.054-3.64,3.136-2.162,1.889-4.351,3.763-6.46,5.7-1.62,1.49-3.088,3.136-4.681,4.6-1.29,1.207-2.67,2.352-4,3.5-.231.2-.507.353-.756.541a2.323,2.323,0,0,1-3.4-.172c-.578-.541-1.237-1.011-1.833-1.568a1.68,1.68,0,0,1-.727-1.271,1.637,1.637,0,0,1,.593-1.324c2.75-2.964,5.41-5.99,8.409-8.773,2.323-2.156,4.681-4.273,7.021-6.421,1.21-1.113,2.385-2.25,3.56-3.363,1.94-1.764,3.9-3.512,5.846-5.268.729-.651,1.415-1.341,2.171-1.968a13.316,13.316,0,0,1,1.78-1.278,1.688,1.688,0,0,1,1.824,0,12.48,12.48,0,0,1,2.563,2.085c1.228,1.254,2.385,2.564,3.56,3.842,1.441,1.568,2.892,3.081,4.334,4.633.578.619,1.157,1.239,1.682,1.889a44.4,44.4,0,0,0,3.657,3.779c.819.784,1.53,1.7,2.313,2.548,1.023,1.113,2.056,2.211,3.088,3.309.7.784,1.406,1.5,2.118,2.234,1.344,1.4,2.67,2.791,4.04,4.179.2.22.436.423.641.651a1.121,1.121,0,0,1,.392.944,1.176,1.176,0,0,1-.561.875c-.756.619-1.539,1.215-2.331,1.811a3.035,3.035,0,0,1-2,.549,1.381,1.381,0,0,1-.845-.321c-1.13-1.027-2.216-2.085-3.319-3.136-1.78-1.67-3.47-3.395-5.277-5.033s-3.462-3.238-5.054-4.986c-1.459-1.568-3.106-3.058-4.672-4.579-.356-.337-.729-.651-1.077-1a6.471,6.471,0,0,0-1.77-1.3ZM73.584,57.994c-.258-.329-.436-.572-.632-.784s-.3-.368-.472-.541a10.111,10.111,0,0,0-9.192-3.042,14.373,14.373,0,0,0-3.871,1.121c-1.94.894-3.56,2.046-4.271,4.014-.2.6-.561,1.152-.819,1.74a7.611,7.611,0,0,0-.721,3.865c.276,2.587,1.726,4.759,3.239,6.9a2.855,2.855,0,0,0,.409.368c.356.329.712.659,1.059,1a21.791,21.791,0,0,0,4.449,3.583,39.215,39.215,0,0,0,8.2,3.544,15.4,15.4,0,0,0,2.269.478,1.628,1.628,0,0,0,1.877-.909,1.926,1.926,0,0,0,.223-.47,24.534,24.534,0,0,0,1.005-4.022c.08-.784.16-1.568.3-2.352a15.343,15.343,0,0,0-.08-5.974c-.133-.619-.142-1.254-.258-1.874C75.835,62.212,75.283,59.868,73.584,57.994Z" transform="matrix(-0.848, -0.53, 0.53, -0.848, 490.977, 351.677)"/>
      <path id="Path_19" data-name="Path 19" d="M1088.457,45.161c1.063-4.348,2.02-8.505,3.115-12.647,1.063-4.04.154-1.669,1.308-5.688a12.553,12.553,0,0,1,.489-1.451,1.9,1.9,0,0,1,2.2-1.244,1.711,1.711,0,0,1,1.531,1.951,15.924,15.924,0,0,1-.218,1.813c-1.063,8.373-1.244,8.335-2.541,15.772-.941,5.428-2.094,10.823-2.823,16.272a38.955,38.955,0,0,0,.266,13.114,26.859,26.859,0,0,0,.845,2.94c.8,2.429,2.265,4.088,5.018,4.253a6.121,6.121,0,0,1,1.244.351c.563,1.595-.356,2.27-1.685,2.546a6.8,6.8,0,0,1-7.246-2.908,21.1,21.1,0,0,1-2.126-4.375,34.932,34.932,0,0,1-1.021-3.381c-.8,1.223-1.308,2.158-1.967,2.966a26.532,26.532,0,0,1-4.014,4.561c-4.726,3.689-10.69,1.8-12.519-3.939a20.489,20.489,0,0,1-1.026-6.613,37.619,37.619,0,0,1,4.885-18.154,24.887,24.887,0,0,1,3.631-4.907C1079.67,42.418,1083.486,42.057,1088.457,45.161Zm-17.218,23.608a35.7,35.7,0,0,0,1.271,5.624c1.4,3.562,4.385,4.056,6.911,1.228a17.01,17.01,0,0,0,2.828-3.992,58.411,58.411,0,0,0,5.114-17.893,9.159,9.159,0,0,0-.532-3.9c-1.063-3-3.535-3.721-6.044-1.791a15.478,15.478,0,0,0-2.8,2.828A32.145,32.145,0,0,0,1071.239,68.769Z" transform="translate(62.728 196.09)"/>
      <path id="Path_21" data-name="Path 21" d="M667.405,60.176c1.749-2.382,3.434-4.784,5.284-7.113a12.376,12.376,0,0,1,3.147-2.855c2.913-1.754,5.672-.845,7.091,2.254a13.1,13.1,0,0,1,.973,7.208q-1.148,9.122-2.483,18.223c-.292,2.025-.7,4.029-1.09,6.034A12.056,12.056,0,0,1,679.8,86c-.34.893-.946,1.866-1.972,1.494a3.052,3.052,0,0,1-1.595-1.914,7.826,7.826,0,0,1,.17-3.025c1.063-7.283,2.211-14.55,3.19-21.843.3-2.164.7-4.423-.532-6.964a13.334,13.334,0,0,0-3.067,1.892,37.159,37.159,0,0,0-4.407,5.475,55.082,55.082,0,0,0-8.25,21.933,7.022,7.022,0,0,1-.627,2.334,1.871,1.871,0,0,1-1.409.888,1.68,1.68,0,0,1-1.324-.983,19.04,19.04,0,0,1-.282-4.784c.532-4.875,1.276-9.728,1.94-14.587,1.547-11.339,2.568-19.488,4.12-30.832a2.173,2.173,0,0,1,.058-.611c.229-1.111.787-1.972,2.036-1.845a1.786,1.786,0,0,1,1.722,2.126c-.255,2.435-.59,4.864-.872,7.3-.532,4.784-.532,6.342-1.063,11.11-.255,2.323-.447,4.651-.664,6.98Z" transform="translate(253.67 192.095)"/>
      <path id="Path_23" data-name="Path 23" d="M1007.637,60.245c1.143,3.232-.34,6.1-.085,9.34.622-.893,1.063-1.595,1.595-2.254,2.371-3.152,5.034-5.97,9.074-6.911s6.608.8,7.187,4.9c.638,4.534-.143,8.979-1.063,13.38s-2.078,8.75-3.019,13.141c-.383,1.8-.484,3.663.978,5.13,1.776.319,3.19-1.9,5.082-.431,0,1.7-1.393,2.376-2.525,3.1-.994.649-2.254,1.43-3.317,1.324-2.4-.239-3.673-2.2-4.3-4.285a10.92,10.92,0,0,1-.276-4.832c.867-4.923,1.972-9.808,3-14.7.569-2.711,1.063-5.406.367-8.192-.691-2.865-2.562-3.721-5.247-2.233a11.527,11.527,0,0,0-4.4,5,14.5,14.5,0,0,0-.983,2.578q-3.322,11.312-6.624,22.646a12,12,0,0,1-.93,2.9,2.706,2.706,0,0,1-1.866,1.212c-1.063.037-1.595-.92-1.526-1.919a58.7,58.7,0,0,1,.712-6.7q2.658-14,5.523-27.967C1005.266,62.961,1005.463,61.2,1007.637,60.245Z" transform="translate(94.828 179.189)"/>
      <path id="Path_24" data-name="Path 24" d="M960.694,97.694a2.573,2.573,0,0,1-1.733,3.136,2.839,2.839,0,0,1-3.551-1.021,10.506,10.506,0,0,1-1.547-3.259,28.226,28.226,0,0,1-.59-3.96,16.584,16.584,0,0,0-1.106,1.738,10.478,10.478,0,0,1-5.746,5.257,6.266,6.266,0,0,1-8.4-2.86,16.479,16.479,0,0,1-1.924-7.655c-.175-6.618,1.329-12.992,2.78-19.366.409-1.791.989-3.54,1.478-5.316.33-1.18.845-2.126,2.323-1.85,1.595.3,1.478,1.43,1.239,2.6-.76,3.721-1.536,7.4-2.286,11.1-.462,2.3-.93,4.6-1.334,6.911-.617,3.508.069,6.911.962,10.286a7.55,7.55,0,0,0,.957,1.908,2.269,2.269,0,0,0,3.19.872,7.3,7.3,0,0,0,4.072-4.375c1.366-3.843,2.727-7.7,3.859-11.621,1.217-4.215,2.126-8.505,3.248-12.758a25.107,25.107,0,0,1,1.595-4.253,2.126,2.126,0,0,1,2.6-1.127,1.927,1.927,0,0,1,1.4,2.387c-.122,1.084-.415,2-.622,3-1.377,6.7-2.844,13.385-4.083,20.11A30.444,30.444,0,0,0,957.308,94C957.4,97.205,957.6,97.343,960.694,97.694Z" transform="translate(124.185 178.344)"/>
      <path id="Path_27" data-name="Path 27" d="M724.837,80.406a19.414,19.414,0,0,0,2.206,11.11,6.055,6.055,0,0,0,7.006,3.147A14.73,14.73,0,0,0,741.826,90c1.887-2.052,1.935-2,4.067-2.382,1.223,1.286.824,2.7,0,3.881-3.62,5.093-8.575,8.054-14.884,7.687-4.62-.271-7.6-3.386-9.17-7.607a25.389,25.389,0,0,1-1.063-14.491A31.168,31.168,0,0,1,727.564,63.5a17.627,17.627,0,0,1,5.231-4.152c3.4-1.76,6.847.409,6.82,4.253a14.263,14.263,0,0,1-1.249,5.6,19.5,19.5,0,0,1-10.419,9.946C727,79.529,726.054,79.9,724.837,80.406Zm10.419-16.617c-4.21,1.441-8.7,7.442-9.319,12.445C731.779,73.543,736.032,67.908,735.256,63.788Z" transform="translate(225.317 179.866)"/>
      <path id="Path_29" data-name="Path 29" d="M854.87,61.946a5.308,5.308,0,0,1-4.572-.117c-5.406-1.978-14.188,1.69-17.053,6.379-1.7,2.748-1.313,4.279,1.669,5.406,1.143.425,2.4.532,3.546.962a42.844,42.844,0,0,1,7.352,2.988c5.587,3.37,6.167,10.042,1.5,14.619-5.05,4.954-13.821,6.214-19.908,2.658a14.293,14.293,0,0,1-3.508-3.291,1.754,1.754,0,0,1,.223-2.509c.776-.686,1.5-.213,2.206.276,3.461,2.376,7.4,2.754,11.434,2.658a9.96,9.96,0,0,0,6.1-2.658c3.136-2.573,3.035-6.379-.479-8.314a37.742,37.742,0,0,0-7.974-3.019,15.134,15.134,0,0,1-6.416-3.434c-2.068-1.935-2.583-3.971-1.026-6.321,4.492-6.778,10.632-11.015,19.073-10.94A8.7,8.7,0,0,1,854.87,61.946Z" transform="translate(176.936 180.539)"/>
      <path id="Path_30" data-name="Path 30" d="M908.087,74.8c-.388,2.913-.67,5.847-1.191,8.755-.856,4.736-3.546,8.622-6.326,12.343a12.142,12.142,0,0,1-4.04,3.19,5.892,5.892,0,0,1-7.666-1.765,10.925,10.925,0,0,1-2.281-6.209A34.089,34.089,0,0,1,890.72,71.36a59.363,59.363,0,0,1,3.4-5.8,9.569,9.569,0,0,1,3.36-3c4.566-2.211,9.069.266,10.052,5.513A63.111,63.111,0,0,1,908.087,74.8ZM893,95.032a7.952,7.952,0,0,0,5.2-3.514,29.049,29.049,0,0,0,5.4-13.773,18.348,18.348,0,0,0-.473-9.08c-.845-2.318-2.2-2.764-4.253-1.488a10.236,10.236,0,0,0-1.164.989c-1.882,1.563-2.722,3.748-3.615,5.927a42.345,42.345,0,0,0-3.344,13.253C890.539,90.146,890.9,92.82,893,95.032Z" transform="translate(147.428 178.45)"/>
      <path id="Path_31" data-name="Path 31" d="M1169.012,66.65c-1.643.8-3.062.319-4.5-.207-5.316-1.935-14.135,1.675-17.011,6.443-1.659,2.727-1.239,4.29,1.781,5.38,1.435.532,3.014.654,4.439,1.2a34.8,34.8,0,0,1,6.964,3.1c4.912,3.291,5.39,9.569,1.329,13.859-5.05,5.353-14.385,6.73-20.631,2.9a13.289,13.289,0,0,1-3.189-3.19,1.573,1.573,0,0,1,.324-2.424,2.652,2.652,0,0,1,2.158.33,18.925,18.925,0,0,0,11.775,2.509,10.124,10.124,0,0,0,6.007-2.817c2.791-2.483,2.658-6.124-.558-7.942a36.679,36.679,0,0,0-7.974-3.1,15.7,15.7,0,0,1-6.469-3.328c-2.238-2.031-2.807-4.093-1.175-6.539,4.519-6.762,10.632-10.967,19.137-10.9a9.406,9.406,0,0,1,7.208,3.551,3.662,3.662,0,0,1,.388,1.17Z" transform="translate(29.713 178.365)"/>
      <path id="Path_33" data-name="Path 33" d="M634.412,53.177c.17,2.328-1.334,2.913-2.759,3.365a17.277,17.277,0,0,1-3.338.42c-1.212.133-2.429.25-3.918.4-.42,3.322-.914,6.528-1.217,9.755q-.643,7-1.063,14.029c-.074,1.265-.346,2.961,1.175,3.524s2.987-.441,4.093-1.494a13.147,13.147,0,0,0,1.685-2.536l1.69-2.658a7.692,7.692,0,0,1-2.5,8.676c-4.736,3.477-9.521,1.488-10.233-4.343a23.813,23.813,0,0,1,0-5.5c.648-5.885,1.441-11.748,2.164-17.627.085-.68.08-1.377.117-2.031-2.036-1.106-4.726-.33-6.2-2.759,2.126-1.7,4.63-.106,6.911-1.063.149-.675.356-1.451.484-2.233,1.063-6.544,1.595-9.9,2.658-16.442a4.5,4.5,0,0,1,.085-.606c.308-1.031.755-2.025,2.063-1.807s1.526,1.2,1.334,2.334c-.25,1.51-.569,3.009-.766,4.524-.781,5.757-.967,8.33-1.717,14.263C628.2,54.23,631.281,53.315,634.412,53.177Z" transform="translate(275.006 192.284)"/>
      <g id="Group_1" data-name="Group 1" transform="translate(135 52)">
        <path id="Path_20" data-name="Path 20" d="M293.849,53.382c1.329-1.419,2.158-2.435,3.12-3.306a11.121,11.121,0,0,1,6.3-2.94c3.748-.42,6.379,2.089,6.071,5.847a11.163,11.163,0,0,1-3.328,7.091c-2.328,2.3-2.435,4.481-1.175,7.325s1.94,5.8,2.924,8.707a12.648,12.648,0,0,0,1.122,2.509c1,1.669,1.653,1.871,3.54,1.329a11.78,11.78,0,0,1,1.462-.372,2.656,2.656,0,0,1,.707.287c.5,1.132-.043,2.036-.909,2.839a4.973,4.973,0,0,1-6.719.159,11.435,11.435,0,0,1-2.743-3.971c-1.2-3.035-2.068-6.193-3.057-9.308-.33-1.063-.617-2.126-.946-3.243-2.36.957-4.476,1.956-6.682,2.658a3.441,3.441,0,0,0-2.658,3.551c-.266,3.556-.76,7.1-1.255,10.632a2.658,2.658,0,0,1-.989,1.728,1.78,1.78,0,0,1-2.849-1.478,18.737,18.737,0,0,1,.128-3.971q2.275-17.16,4.63-34.314c.654-4.752.845-9.494,1.568-14.236a5.564,5.564,0,0,1,.654-2.334,2.78,2.78,0,0,1,1.914-1.063c.4,0,1.164.92,1.185,1.451a34.5,34.5,0,0,1-.234,5.491c-.638,5.066-.856,10.1-1.536,15.177C293.934,50.629,293.934,51.655,293.849,53.382Zm-1.813,11.865a63.156,63.156,0,0,1,5.571-3.19c3.216-1.382,5.178-3.918,6.788-6.8.675-1.212,1.669-2.722.425-3.944s-2.945-.4-4.253.377a18.2,18.2,0,0,0-8.314,10.956,14.462,14.462,0,0,0-.218,2.6Z" transform="translate(293.201 142.912)"/>
        <path id="Path_22" data-name="Path 22" d="M124.338,52.347a10.6,10.6,0,0,0-6.172,4.784c-4.572,6.634-8.027,13.779-9.42,21.8-.229,1.308-.4,2.658-.7,3.928-.223,1.01-.574,2.126-1.908,1.993s-1.595-1.217-1.685-2.243a12.785,12.785,0,0,1,.043-3.057c1.9-14.082,3.3-28.174,5.231-42.24.3-2.222.6-4.449.93-6.666a2.586,2.586,0,0,1,.436-1.425,2.828,2.828,0,0,1,1.775-.808c.409,0,1.01.686,1.148,1.169a5.726,5.726,0,0,1,0,2.126c-.819,7.724-1.132,15.443-1.94,23.167-.128,1.212-.128,2.44-.213,4.253.813-.973,1.313-1.515,1.749-2.126,1.34-1.807,2.658-3.641,3.992-5.449a9.712,9.712,0,0,1,1.2-1.4c1.717-1.595,3.631-2.876,6.076-2.063a5.333,5.333,0,0,1,3.6,4.938,45.742,45.742,0,0,1-.037,9.186c-.856,6.687-2.041,13.338-3.126,19.993a7.187,7.187,0,0,1-.781,2.626c-.367.59-1.281,1.271-1.845,1.185a2.526,2.526,0,0,1-1.531-1.595,8.08,8.08,0,0,1,.085-3.025c.877-5.762,1.866-11.509,2.69-17.277.409-2.828.59-5.693.765-8.548A19.085,19.085,0,0,0,124.338,52.347Z" transform="translate(378.147 142.491)"/>
        <path id="Path_25" data-name="Path 25" d="M471.147,92.292c-.67,1.239-1.09,2.041-1.536,2.828a10.515,10.515,0,0,1-6.767,4.928,6.249,6.249,0,0,1-6.911-3.4A16.532,16.532,0,0,1,454.019,89c-.165-6.618,1.34-12.992,2.791-19.366.431-1.887,1.063-3.721,1.595-5.6a1.8,1.8,0,0,1,2.249-1.526c1.4.266,1.478,1.233,1.255,2.328-1.037,5-2.052,10-3.147,14.985a26.127,26.127,0,0,0-.106,11.546c.112.494.239.994.388,1.478.452,1.478.867,3.19,2.557,3.535a4.273,4.273,0,0,0,4.4-2.254,25.057,25.057,0,0,0,2.855-6.06c1.786-5.847,3.349-11.78,4.981-17.686.462-1.675.8-3.376,1.286-5.045a9.354,9.354,0,0,1,1-2.217,2.206,2.206,0,0,1,2.626-1.09c1.239.33,1.488,1.318,1.382,2.408a23.25,23.25,0,0,1-.489,2.392c-1.409,6.8-2.908,13.582-4.173,20.408a32.223,32.223,0,0,0-.218,6.725c.1,3.237.239,3.317,3.4,3.721a2.587,2.587,0,0,1-1.765,3.126,2.849,2.849,0,0,1-3.546-1.063,10.632,10.632,0,0,1-1.542-3.264A27.025,27.025,0,0,1,471.147,92.292Z" transform="translate(214.38 126.792)"/>
        <path id="Path_26" data-name="Path 26" d="M173.4,84.863a19.3,19.3,0,0,0,2.334,11.28,5.98,5.98,0,0,0,6.826,2.94,14.587,14.587,0,0,0,7.793-4.635c1.063-1.169,2.073-2.6,4.029-2.5,1.308,1.292.925,2.716.09,3.907-3.588,5.114-8.553,8.07-14.837,7.74-4.784-.25-7.767-3.5-9.324-7.841a25.447,25.447,0,0,1-.936-14.5,31.274,31.274,0,0,1,6.719-13.29,17.8,17.8,0,0,1,5.21-4.178c3.4-1.786,6.7.34,6.948,4.157a11.435,11.435,0,0,1-1.5,6.177,20.557,20.557,0,0,1-10.467,9.521Zm.755-4.12c5.986-2.536,10.339-8.277,9.717-12.53-3.976,1.26-7.618,5.869-9.717,12.546Z" transform="translate(348.006 126.221)"/>
        <path id="Path_28" data-name="Path 28" d="M419.615,73.841c-.425,7.224-1.935,14.119-6,20.3a15.416,15.416,0,0,1-5.964,5.146,5.537,5.537,0,0,1-7.538-1.967,16.166,16.166,0,0,1-2.562-12.3,50.047,50.047,0,0,1,6.725-17.978,11.742,11.742,0,0,1,4.9-4.513,6.332,6.332,0,0,1,8.7,2.7C419.445,67.9,419.7,70.827,419.615,73.841Zm-4.29-.383a34.649,34.649,0,0,0-.946-5.045c-.643-2.052-1.94-2.408-3.843-1.382a9.625,9.625,0,0,0-1.43,1.132c-1.977,1.627-2.807,3.939-3.721,6.2a41.732,41.732,0,0,0-3.259,13.29,10.212,10.212,0,0,0,1.318,6.172c.84,1.366,1.472,1.648,2.727.734a17.826,17.826,0,0,0,3.721-3.546C413.6,86.11,414.916,80.417,415.325,73.458Z" transform="translate(240.965 126.866)"/>
        <path id="Path_32" data-name="Path 32" d="M535.8,76.561a6.473,6.473,0,0,1,.032,6.14,6.682,6.682,0,0,1-7,3.907c-3.721-.473-5.784-2.227-6.379-5.592a25.917,25.917,0,0,1-.26-3.966,97.676,97.676,0,0,1,1.632-19.515c.144-.8.229-1.595.356-2.552a11.13,11.13,0,0,1-2.158-1.063,1.946,1.946,0,0,1-.76-1.43c.058-.441.675-.952,1.159-1.143a11.784,11.784,0,0,1,2.472-.367c.4-2.546.872-5.119,1.217-7.713.447-3.338.26-3.5.675-6.842a15.949,15.949,0,0,1,.436-2.094c.287-1.1.9-1.924,2.158-1.664a2.084,2.084,0,0,1,1.781,2.185,18.216,18.216,0,0,1-.207,2.754c-.675,4.253-.882,5.263-1.552,9.5-.191,1.2-.229,2.419-.356,3.822a17.15,17.15,0,0,0,2.153.324c2.865.037,5.736,0,8.6.058a25.209,25.209,0,0,1,3.035.452c-.691,1.813-1.977,1.914-3.131,2.063-2.658.346-5.316.585-7.937.872l-3.227.351c-.26,1.9-.532,3.721-.755,5.5-.611,4.965-1.249,9.925-1.77,14.885a26.947,26.947,0,0,0,.085,4.582A2.964,2.964,0,0,0,528.287,83a3.446,3.446,0,0,0,3.907-1.01,39.863,39.863,0,0,0,2.493-3.45C535.107,77.911,535.437,77.225,535.8,76.561Z" transform="translate(182.873 140.519)"/>
        <path id="Path_34" data-name="Path 34" d="M68.094,96.558c.292,1.781-.7,2.855-1.77,3.79a18.648,18.648,0,0,1-12.726,4.6c-4.061,0-7.32-2.8-8.707-7.075a19.265,19.265,0,0,1-.128-11.2,24.343,24.343,0,0,1,13.13-15.8c5.614-2.849,8.622,1.4,8.9,5.523.048.675-.585,1.393-.9,2.089-.67-.346-1.552-.532-1.967-1.063-2.631-3.466-2.9-3.583-6.379-1.031-4.827,3.556-8.112,8.144-8.606,14.252a16.713,16.713,0,0,0,.7,6.012c.845,2.823,2.977,4.077,5.922,3.79a17.816,17.816,0,0,0,8.66-2.871C65.319,96.829,66.361,95.894,68.094,96.558Z" transform="translate(406.435 123.031)"/>
        <path id="Path_35" data-name="Path 35" d="M249.346,72.566c-.138.058-.25.149-.324.128-4.051-1.292-6.873.7-9.436,3.466a23.028,23.028,0,0,0-5.438,10.494,13.077,13.077,0,0,0,1.3,9.218c2.4,4.662,6.6,5.459,10.632,2.126,1.228-1.01,2.2-2.4,3.928-2.791a2.362,2.362,0,0,1,.276,3.136,10.729,10.729,0,0,1-15.193,4.322c-3.939-2.6-6.06-5.879-6.177-10.579-.175-6.953,2.227-13.019,6.278-18.494a12.8,12.8,0,0,1,6.023-4.6c2.536-.888,5.05-.914,7.288.813C249.415,70.477,250.309,71.312,249.346,72.566Z" transform="translate(319.821 123.76)"/>
      </g>
    </g>
  </g>
</svg>
