<svg xmlns="http://www.w3.org/2000/svg" width="387.87" height="78.27" viewBox="0 0 387.87 78.27">
  <g id="Layer_2" transform="translate(-77.06 -41.87)">
    <g id="Group_6" data-name="Group 6">
      <path id="Path_17" data-name="Path 17" d="M228.94,55.32a35.475,35.475,0,0,0-9.75-9.21,26.09,26.09,0,0,0-13.06-4.02H110a26.731,26.731,0,0,0-13.79,3.55,35.813,35.813,0,0,0-10.37,9.25,41.115,41.115,0,0,0-6.55,12.54A44.177,44.177,0,0,0,77.06,81.1v30.49a8.57,8.57,0,0,0,8.6,8.55,8.383,8.383,0,0,0,6.08-2.5,8.143,8.143,0,0,0,2.49-6.05V81.09a33.683,33.683,0,0,1,.81-7.05,19.3,19.3,0,0,1,3.04-7.06,18.19,18.19,0,0,1,6.08-5.49,20.76,20.76,0,0,1,10.16-2.22h13.15a20.712,20.712,0,0,1,10.05,2.22,18.07,18.07,0,0,1,6.2,5.49,19.505,19.505,0,0,1,3.02,7.06,34.365,34.365,0,0,1,.81,7.05v30.49a8.29,8.29,0,0,0,2.49,6.05,8.692,8.692,0,0,0,12.2,0,8.237,8.237,0,0,0,2.51-6.05V81.09a44.649,44.649,0,0,0-2.16-13.41,43.847,43.847,0,0,0-3.67-8.41h41.13a20.948,20.948,0,0,1,10.04,2.22,18.017,18.017,0,0,1,6.16,5.49,19.389,19.389,0,0,1,3.05,7.06,36.523,36.523,0,0,1,.8,7.05v30.49a8.59,8.59,0,1,0,17.18,0V81.09a44.3,44.3,0,0,0-2.14-13.41A42.812,42.812,0,0,0,228.94,55.32Z" fill="#ffd200"/>
      <path id="Path_18" data-name="Path 18" d="M264.18,41.87a8.486,8.486,0,0,0-6.09,2.5,8.358,8.358,0,0,0-2.51,6.11v60.86a8.187,8.187,0,0,0,2.51,6.08,8.635,8.635,0,0,0,14.73-6.08V50.48a8.553,8.553,0,0,0-2.54-6.11A8.426,8.426,0,0,0,264.18,41.87Z" fill="#ffd200"/>
      <path id="Path_19" data-name="Path 19" d="M421.5,55.13a35.428,35.428,0,0,0-9.77-9.21,26.115,26.115,0,0,0-13.04-4.05H323.62a26.831,26.831,0,0,0-13.78,3.6,34.61,34.61,0,0,0-10.34,9.24,40.227,40.227,0,0,0-6.56,12.51,44.127,44.127,0,0,0-2.24,13.69v30.43a8.587,8.587,0,0,0,8.59,8.6,8.587,8.587,0,0,0,8.62-8.6V80.91a34.048,34.048,0,0,1,.77-7.1,19.8,19.8,0,0,1,3.05-7.03,18.208,18.208,0,0,1,6.12-5.47c2.54-1.47,5.88-2.22,10.08-2.22h64.68a20.463,20.463,0,0,1,10.04,2.22,18.707,18.707,0,0,1,6.17,5.47,19.761,19.761,0,0,1,3.03,7.03,34.929,34.929,0,0,1,.79,7.1v30.43a8.293,8.293,0,0,0,2.5,6.08,8.446,8.446,0,0,0,6.11,2.52,8.656,8.656,0,0,0,8.58-8.6V80.91a44.611,44.611,0,0,0-8.33-25.78Z" fill="#ffd200"/>
      <path id="Path_20" data-name="Path 20" d="M462.42,44.37a8.539,8.539,0,0,0-6.12-2.5,8.553,8.553,0,0,0-8.57,8.61v60.86a8.587,8.587,0,0,0,8.57,8.6,8.42,8.42,0,0,0,6.12-2.52,8.324,8.324,0,0,0,2.51-6.08V50.48A8.5,8.5,0,0,0,462.42,44.37Z" fill="#ffd200"/>
    </g>
  </g>
</svg>
