<svg xmlns="http://www.w3.org/2000/svg" width="440.16" height="72.906" viewBox="0 0 440.16 72.906">
  <g id="Group_901" data-name="Group 901" transform="translate(-223.887 -140.094)">
    <path id="Path_21763" data-name="Path 21763" d="M412.893,184.567h-.65c2.993,1.9,6.062,3.934,9.171,6.083q4.679,3.274,9.542,7.108a15.192,15.192,0,0,1,3.179,3.107,6.588,6.588,0,0,1,1.338,4.086A8.054,8.054,0,0,1,427.456,213a9.028,9.028,0,0,1-5.7-2.364c-4.582-3.343-9.266-6.551-14.042-9.7a135.686,135.686,0,0,0-14.962-8.371,95.71,95.71,0,0,0-16.117-5.84,69.931,69.931,0,0,0-17.391-2.157H325.969a6.073,6.073,0,0,0-5.173,6.169v14.215a7.611,7.611,0,0,1-2.406,5.682A8.015,8.015,0,0,1,312.774,213a7.847,7.847,0,0,1-5.69-2.364,7.745,7.745,0,0,1-2.33-5.682V188.9a20.168,20.168,0,0,1,1.591-7.927,21.38,21.38,0,0,1,4.259-6.534,20.362,20.362,0,0,1,6.347-4.365,20.6,20.6,0,0,1,8.025-1.581h60.863c7.056,0,34.08-4.384,34.08-6.174,0-1.663-26.4-6.186-34.08-6.186H312.516a7.959,7.959,0,0,1-8.039-7.879v-.118a8,8,0,0,1,7.951-8.044H412.893a22.024,22.024,0,0,1,8.78,1.775,23.355,23.355,0,0,1,7.2,4.766,21.741,21.741,0,0,1,4.825,7.005,22.229,22.229,0,0,1,0,17.391,22.527,22.527,0,0,1-4.825,7.007,23.991,23.991,0,0,1-7.2,4.764A22.209,22.209,0,0,1,412.893,184.567Z" transform="translate(89.505 0.002)" fill="#fff"/>
    <path id="Path_21764" data-name="Path 21764" d="M304.781,142.446a7.719,7.719,0,0,1,2.332,5.692v56.815a7.732,7.732,0,0,1-2.332,5.682,8.054,8.054,0,0,1-11.391.008l-.008-.008a7.732,7.732,0,0,1-2.332-5.682V148.141a8.047,8.047,0,0,1,13.732-5.694Z" transform="translate(74.591 0.001)" fill="#fff"/>
    <path id="Path_12380" data-name="Path 12380" d="M345.869,152.521a31.821,31.821,0,0,0-9.076-8.6,24.287,24.287,0,0,0-12.21-3.816H254.6a25.334,25.334,0,0,0-12.824,3.324,33.7,33.7,0,0,0-9.7,8.66,39.782,39.782,0,0,0-6.1,11.684,42.655,42.655,0,0,0-2.085,12.767v28.369a8.008,8.008,0,0,0,13.664,5.72,7.655,7.655,0,0,0,2.345-5.72V193.454a8.252,8.252,0,0,0,1.477.133h96.271v11.349a7.815,7.815,0,0,0,2.391,5.72,8.035,8.035,0,0,0,5.713,2.339,7.925,7.925,0,0,0,5.587-2.339,7.721,7.721,0,0,0,2.332-5.72V176.569a41.227,41.227,0,0,0-7.809-24.044Zm-47.776,25.03H241.347a9.627,9.627,0,0,0-1.477.11v-1.091a32.551,32.551,0,0,1,.734-6.659,19,19,0,0,1,2.866-6.543,17.408,17.408,0,0,1,5.7-5.118,19.187,19.187,0,0,1,9.436-2.1h60.306a19.428,19.428,0,0,1,9.339,2.1,17.341,17.341,0,0,1,5.766,5.118,16.677,16.677,0,0,1,2.837,6.543,31.851,31.851,0,0,1,.794,6.659v.984Z" transform="translate(0 0.007)" fill="#fff"/>
    <path id="Path_12382" data-name="Path 12382" d="M500.757,173.064h-.169a41.041,41.041,0,0,0-7.632-20.553,31.92,31.92,0,0,0-9.076-8.6,24.1,24.1,0,0,0-12.21-3.816H401.646a25.327,25.327,0,0,0-12.824,3.318,33.685,33.685,0,0,0-9.7,8.67,39.781,39.781,0,0,0-6.1,11.684,43.778,43.778,0,0,0-1.923,9.951h-.186v2.82a41.179,41.179,0,0,0,7.809,24.04,31.764,31.764,0,0,0,9.076,8.6A24.211,24.211,0,0,0,400.008,213h70.019a25.264,25.264,0,0,0,12.824-3.324,33.529,33.529,0,0,0,9.692-8.666,39.579,39.579,0,0,0,6.108-11.672,42.716,42.716,0,0,0,2.056-12.21h0v-.574h0ZM481.129,189.75a17.256,17.256,0,0,1-5.7,5.112,19.074,19.074,0,0,1-9.436,2.111H405.675a19.362,19.362,0,0,1-9.339-2.111,17.1,17.1,0,0,1-5.766-5.112,16.752,16.752,0,0,1-2.837-6.553,29.319,29.319,0,0,1-.063-13.28,18.957,18.957,0,0,1,2.866-6.543,17.276,17.276,0,0,1,5.7-5.118,19.188,19.188,0,0,1,9.437-2.1h60.306a19.425,19.425,0,0,1,9.337,2.1,17.254,17.254,0,0,1,5.766,5.118,16.528,16.528,0,0,1,2.837,6.543,29.89,29.89,0,0,1,0,13.282,19.04,19.04,0,0,1-2.8,6.553Z" transform="translate(163.289)" fill="#fff"/>
  </g>
</svg>
