<svg xmlns="http://www.w3.org/2000/svg" width="1129.48" height="80.11" viewBox="0 0 1129.48 80.11">
  <g id="Helmet" transform="translate(-75.26 -40.93)">
    <path id="Path_1" data-name="Path 1" d="M75.26,46.55A9.315,9.315,0,0,1,83.2,42.1h1.55q6.57.39,7.35,5.42a102.323,102.323,0,0,1,.58,13.74V72.87q17.61-.18,53.03-.19t53.03-.19l.39-13.36c.12-6.58.26-10.51.39-11.8a4.531,4.531,0,0,1,1.16-2.9c1.55-1.68,3.93-2.52,7.16-2.52a8.124,8.124,0,0,1,5.61,1.74q2.325,2.13,2.71,6.77t.39,31.16q0,26.91-.39,31.64t-2.71,6.1a11.41,11.41,0,0,1-5.8,1.55,8.892,8.892,0,0,1-6.58-2.32l-1.74-1.74-.19-13.16-.39-13.16-53.03-.19H92.68v12.77q-.195,10.455-.77,12.87a5.685,5.685,0,0,1-3.49,3.77,11.712,11.712,0,0,1-5.22.97,8.879,8.879,0,0,1-4.65-.97,5.072,5.072,0,0,1-2.51-3.1q-.78-3.09-.77-25.16V46.55Z" fill="#ffd200"/>
    <path id="Path_2" data-name="Path 2" d="M404.85,43.07a8.875,8.875,0,0,1,4.26-1.16,8.516,8.516,0,0,1,7.35,3.87,11.9,11.9,0,0,1,1.16,5.32q.2,3.765.2,21.19,0,23.61.77,26.32a6.475,6.475,0,0,0,2.51,3.29l1.94,1.35h71.8q31.35,0,37.26.39t7.45,2.51a3.87,3.87,0,0,0,.29.29.38.38,0,0,1,.1.29,8.985,8.985,0,0,1,1.93,5.61,7.823,7.823,0,0,1-4.07,7.35l-2.12,1.16-53.81.19q-55.545,0-58.64-.39-13.155-1.545-19.35-11.8a21.171,21.171,0,0,1-2.91-7.65q-.585-3.765-.58-16.35V73.26q.18-18.96.39-22.55c.12-2.39.45-3.97.96-4.74A13.833,13.833,0,0,1,404.85,43.07Z" fill="#ffd200"/>
    <path id="Path_3" data-name="Path 3" d="M572.07,42.1a16.015,16.015,0,0,1,4.26-.58,17.507,17.507,0,0,1,11.99,4.65q2.715,2.325,23.81,26.51t22.84,25.35a5.873,5.873,0,0,0,2.32.78c1.42,0,2.96-.84,4.64-2.52q1.74-1.74,23.42-26.32,20.7-23.61,23.42-25.74a16.623,16.623,0,0,1,9.1-2.71q7.74,0,12,5.81a15.433,15.433,0,0,1,2.81,6.87q.48,3.585.49,21.2v38.9l-1.16,1.93a7.886,7.886,0,0,1-7.16,3.68h-.77a7.741,7.741,0,0,1-6.77-4.45q-1.155-1.74-1.36-25.55,0-23.61-.39-24.39a.345.345,0,0,0-.39-.39q-.975,0-19.55,21.1-3.285,3.675-5.03,5.81-18.78,21.09-22.55,24.48a13.8,13.8,0,0,1-9.58,3.39H637.1c-4.12,0-7.29-.87-9.48-2.61s-8.13-8.09-17.8-19.06q-29.22-33.285-30-33.29-.2,0-.58,24.39-.2,17.805-.39,21.29a12.134,12.134,0,0,1-.96,4.84,8.936,8.936,0,0,1-15.09.58c-.52-.77-.85-2.55-.97-5.32s-.19-11.64-.19-26.61V53.91l1.93-3.68Q566.84,43.84,572.07,42.1Z" fill="#ffd200"/>
    <path id="Path_4" data-name="Path 4" d="M915.59,41.32q13.545-.39,64.44-.39h30q9.87,0,15.48.19a64.214,64.214,0,0,1,6.48.39,4.433,4.433,0,0,1,1.65.77,8.69,8.69,0,0,1,3.88,7.16,8.81,8.81,0,0,1-3.88,7.35c-.77.52-2.45.84-5.03.97s-10.71.26-24.39.39l-28.06.39.2,27.29v17.22q0,10.26-.97,11.81a7.969,7.969,0,0,1-7.16,4.06,9.175,9.175,0,0,1-6.96-3.1l-1.36-1.55-.39-27.87-.19-27.87H931.26q-20.7,0-24.48-.19c-2.52-.12-4.16-.45-4.94-.97a8.825,8.825,0,0,1-3.87-7.35,8.679,8.679,0,0,1,3.87-7.16Q903.2,41.72,915.59,41.32Z" fill="#ffd200"/>
    <path id="Path_5" data-name="Path 5" d="M1076.81,42.1q2.9-.765,59.03-.77,41.61,0,49.16.19c5.04.13,8.13.46,9.29.97q4.83,2.13,4.84,7.94a7.492,7.492,0,0,1-4.45,7.35q-1.935.975-58.06.97h-18q-29.61,0-35.32.39t-6.87,2.13a.57.57,0,0,0-.2.39c-.52.52-.77,1.74-.77,3.68,0,1.81.26,2.97.77,3.49a4.782,4.782,0,0,0,3.68,2.13q4.44.78,35.03.77h16.26q50.9,0,53.8.58a24.268,24.268,0,0,1,19.74,23.42,29.762,29.762,0,0,1-.39,4.07,24.077,24.077,0,0,1-5.9,12.1,22.747,22.747,0,0,1-11.32,6.68q-3.675.975-59.8.97h-16.65q-31.155,0-37.06-.39t-7.45-2.51l-.39-.39a8.212,8.212,0,0,1-1.74-5.03,9.051,9.051,0,0,1,3.68-7.74c.77-.51,3.67-.84,8.71-.97s21.74-.26,50.12-.39q54.39-.39,58.06-1.16a3.1,3.1,0,0,0,2.52-2.13,1.636,1.636,0,0,0,.19-.58,5.1,5.1,0,0,0,.58-2.32,6.413,6.413,0,0,0-2.52-5.03l-2.12-1.74H1131.2q-52.455,0-55.74-.97a24.03,24.03,0,0,1-11.9-8.03,22.319,22.319,0,0,1-4.93-13.07V65.36a23.725,23.725,0,0,1,4.93-14.9A22.476,22.476,0,0,1,1076.81,42.1Z" fill="#ffd200"/>
    <g id="Group_1" data-name="Group 1">
      <path id="Path_6" data-name="Path 6" d="M872.3,120.13a8.68,8.68,0,1,0,0-17.36H758.39a5.89,5.89,0,0,1-4.07-1.36,4.089,4.089,0,0,1-1.54-3.16V89.39H868.31a8.68,8.68,0,1,0,0-17.36H747q-5.97,0-8.77,1.63c-1.87,1.09-2.8,3.25-2.8,6.51V96.44a23.07,23.07,0,0,0,1.99,9.76,25.176,25.176,0,0,0,5.06,7.41,22.423,22.423,0,0,0,7.05,4.79,19.832,19.832,0,0,0,7.96,1.72H872.3Z" fill="#ffd200"/>
      <path id="Path_7" data-name="Path 7" d="M737.96,56.12a8.37,8.37,0,0,0,6.15,2.53H872.3a8.7,8.7,0,0,0,6.15-14.83,8.37,8.37,0,0,0-6.15-2.53H744.1a8.69,8.69,0,0,0-6.14,14.83" fill="#ffd200"/>
    </g>
    <g id="Group_2" data-name="Group 2">
      <path id="Path_8" data-name="Path 8" d="M371.49,120.13a8.68,8.68,0,1,0,0-17.36H257.58a5.89,5.89,0,0,1-4.07-1.36,4.089,4.089,0,0,1-1.54-3.16V89.39H367.5a8.68,8.68,0,1,0,0-17.36H246.19q-5.97,0-8.77,1.63c-1.87,1.09-2.8,3.25-2.8,6.51V96.44a23.07,23.07,0,0,0,1.99,9.76,25.176,25.176,0,0,0,5.06,7.41,22.422,22.422,0,0,0,7.05,4.79,19.822,19.822,0,0,0,7.95,1.72H371.49Z" fill="#ffd200"/>
      <path id="Path_9" data-name="Path 9" d="M237.15,56.12a8.37,8.37,0,0,0,6.15,2.53H371.49a8.7,8.7,0,0,0,6.15-14.83,8.37,8.37,0,0,0-6.15-2.53H243.3a8.7,8.7,0,0,0-6.15,14.83" fill="#ffd200"/>
    </g>
  </g>
</svg>
