<svg id="Group_833" data-name="Group 833" xmlns="http://www.w3.org/2000/svg" width="223.055" height="163.55" viewBox="0 0 223.055 163.55">
  <path id="Path_17001" data-name="Path 17001" d="M126.149,399.6H318.8a96.326,96.326,0,0,0-192.651,0Z" transform="translate(-111.402 -236.064)" fill="#ffd200"/>
  <path id="Path_17002" data-name="Path 17002" d="M239,345.757a6.42,6.42,0,0,1-2.273-8.674,6.33,6.33,0,0,1,3.839-2.963,8.421,8.421,0,0,1,.982-.149c-1.167-9-5.237-17.163-12.251-22.88-16.543-13.479-43.076-8.306-59.257,11.555s-15.88,46.881.66,60.36,43.079,8.309,59.254-11.549a52.809,52.809,0,0,0,11.361-24.922,6.1,6.1,0,0,1-2.313-.778" transform="translate(-46.254 -236.27)" fill="#fbae17"/>
  <path id="Path_17003" data-name="Path 17003" d="M209.9,333.99c-.854-1.425-1.593-2.906-2.386-4.358-1-1.115-1.979-2.228-2.9-3.4-5.355-6.775-9.218-12.014-12.233-19.223a62.751,62.751,0,0,0-6.629,3.869c-12.859,8.7-22.758,29.332-16.385,45.23,6.373,15.914,35.426,11.4,35.426,11.4,4.389-.45,17.552-9.747,18.652-19.707a41.785,41.785,0,0,1-13.549-13.8" transform="translate(-27.318 -229.302)" fill="#bb793a"/>
  <path id="Path_17004" data-name="Path 17004" d="M185.891,340.5a23.118,23.118,0,0,0,1.435-2.726c.073-1.483.091-3.191.009-5.1a22.526,22.526,0,0,1-2.045,7.826Z" transform="translate(9.2 -176.952)" fill="#bb793a"/>
  <path id="Path_17005" data-name="Path 17005" d="M187.017,328.319A50.926,50.926,0,0,1,194.46,349.4a33.744,33.744,0,0,1,1.656,7.92,25.782,25.782,0,0,0,1.614-8.069,51.038,51.038,0,0,0-7.446-21.126c-3.279-5.185-6.854-6.343-10.276-5.4,2.38.4,4.763,2.042,7.009,5.6Z" transform="translate(-1.569 -197.849)" fill="#bb793a"/>
  <path id="Path_17006" data-name="Path 17006" d="M186.521,344.088h1.97a20.469,20.469,0,0,0,1.757-13.172,25.005,25.005,0,0,1-3.726,13.172Z" transform="translate(11.713 -180.539)" fill="#bb793a"/>
  <path id="Path_17007" data-name="Path 17007" d="M184.763,331.3a54.228,54.228,0,0,1,.283,10.938,23.667,23.667,0,0,0,1.374-3.018,33.74,33.74,0,0,0-1.656-7.92Z" transform="translate(8.128 -179.749)" fill="#bb793a"/>
  <path id="Path_17008" data-name="Path 17008" d="M192.039,322.605c-9.592-1.739-19.129,17.309-19.129,17.309l4.462-3.41c2.863-4.747,8.583-12.853,14.668-13.9Z" transform="translate(-16.044 -197.715)" fill="#000101"/>
  <path id="Path_17009" data-name="Path 17009" d="M169.7,352.333h2.535c2.447-3.2,4.346-5.85,5.51-7.337.2-.258.392-.529.59-.793.675-1,1.334-1.969,1.972-2.909a92.084,92.084,0,0,0,7.072-14.421l-3.681,2.817c-1.6,3.76-4.732,10.495-8.483,15.306-1.17,1.486-3.07,4.137-5.516,7.337Z" transform="translate(-22.598 -188.783)" fill="#000101"/>
  <path id="Path_17010" data-name="Path 17010" d="M184.915,342.9c-.027.368-.058.732-.088,1.058h1.4a22.524,22.524,0,0,0,2.045-7.826,17.9,17.9,0,0,0-.374-5.145s.012.3,0,.827a25.781,25.781,0,0,1-1.614,8.069,23.676,23.676,0,0,1-1.374,3.018Z" transform="translate(8.258 -180.404)" fill="#000101"/>
  <path id="Path_17011" data-name="Path 17011" d="M172.537,334.526c.684-.924,1.343-1.9,1.973-2.909-.638.939-1.3,1.912-1.973,2.909Z" transform="translate(-16.804 -179.107)" fill="#fff"/>
  <path id="Path_17012" data-name="Path 17012" d="M187.426,343.954a20.3,20.3,0,0,0,1.666-12.972,25.009,25.009,0,0,1-2.17,10.245,23.11,23.11,0,0,1-1.435,2.726Z" transform="translate(9.604 -180.404)" fill="#000101"/>
  <path id="Path_17013" data-name="Path 17013" d="M178.6,350.225c-.629,1.006-1.289,1.985-1.973,2.909-.2.264-.389.535-.59.793-1.164,1.486-3.064,4.137-5.51,7.337h3.164c5.981-8.92,13.093-19.433,14.379-20.889,2.279-2.593,2.134-1.374,3.352-1.374s0-3.2,1.216-5.328,7.458-2.9,10.659,1.52-.459,14.774-3.653,19.95a45.543,45.543,0,0,1-4.69,6.121h4.06c3.632-5.437,8.218-13.507,8.394-19.828,0,0,6.091,12.789,4.562,19.193-.055.234-.112.413-.17.635h2.179c.03-.325.061-.69.088-1.058a54.229,54.229,0,0,0-.283-10.938,50.926,50.926,0,0,0-7.443-21.083c-2.246-3.553-4.629-5.2-7.009-5.6a7.322,7.322,0,0,0-2.444.015c-6.085,1.045-11.8,9.151-14.668,13.9-1.213,2.006-1.915,3.41-1.915,3.41l1.684-1.292,3.681-2.817a92.087,92.087,0,0,1-7.072,14.421Z" transform="translate(-20.897 -197.714)" fill="#24272c"/>
  <path id="Path_17014" data-name="Path 17014" d="M201.177,328.835c-3.2-4.416-9.443-3.653-10.659-1.52s0,5.328-1.216,5.328-1.073-1.219-3.352,1.374c-1.286,1.456-8.4,11.969-14.379,20.889h21.263a45.525,45.525,0,0,0,4.69-6.121c3.194-5.176,6.854-15.528,3.653-19.95Z" transform="translate(-18.774 -191.357)" fill="#fff"/>
  <path id="Path_17015" data-name="Path 17015" d="M188.3,328.726c-.176,6.322-4.763,14.391-8.394,19.828h12.786c.058-.222.116-.4.17-.635,1.529-6.4-4.562-19.193-4.562-19.193Z" transform="translate(-1.783 -185.005)" fill="#fff"/>
  <path id="Path_17016" data-name="Path 17016" d="M194.914,369.762s-29.068,4.525-35.432-11.391,3.529-36.535,16.385-45.236,38.243-17.141,41.574-.65-3.69,26.019-3.811,36.41-14.151,20.412-18.716,20.868" transform="translate(-47.479 -237.317)" fill="#fbae17"/>
  <path id="Path_17017" data-name="Path 17017" d="M142.974,371.567c16.178,19.859,42.708,25.031,59.254,11.552s16.841-40.507.653-60.366-42.7-25.025-59.245-11.546-16.847,40.5-.663,60.36" transform="translate(-101.454 -236.037)" fill="#fbae17"/>
  <path id="Path_17018" data-name="Path 17018" d="M162.2,369.762s29.062,4.525,35.432-11.391-3.529-36.535-16.385-45.236-38.246-17.141-41.571-.65,3.681,26.019,3.805,36.41,14.16,20.412,18.719,20.868" transform="translate(-85.64 -237.317)" fill="#fbae17"/>
  <path id="Path_17019" data-name="Path 17019" d="M143.178,333.99c.86-1.425,1.6-2.906,2.386-4.358,1-1.115,1.976-2.228,2.9-3.4,5.355-6.775,9.218-12.014,12.236-19.223a63.066,63.066,0,0,1,6.629,3.869c12.85,8.7,22.752,29.332,16.391,45.23-6.373,15.914-35.435,11.4-35.435,11.4-4.395-.45-17.552-9.747-18.652-19.707a41.6,41.6,0,0,0,13.546-13.8" transform="translate(-104.3 -229.302)" fill="#bb793a"/>
  <path id="Path_17020" data-name="Path 17020" d="M312.5,360.911q.688-1.541,1.264-3.094a17.46,17.46,0,0,1,3.851,5.139,51.091,51.091,0,0,0-5.115-2.045Zm-67.469-36.563A52.151,52.151,0,0,0,233.3,352.316a52.179,52.179,0,0,0-11.735-27.967,54.975,54.975,0,0,0-8.659-8.47,92.215,92.215,0,0,1,10.054-1.717l-.1.52h3.1l.039.015c-.024-.261-.049-.529-.073-.79,2.5-.2,5.018-.34,7.559-.34q2.362,0,4.7.121c-.027.128-.052.246-.079.371h.842a.412.412,0,0,1,.416-.313,3.7,3.7,0,0,1,1.374.331.5.5,0,0,1,.182.811c.122.03.24.067.359.1.073-.349.146-.7.225-1.058a91.759,91.759,0,0,1,12.242,1.9,55.129,55.129,0,0,0-8.717,8.519ZM148.04,362.956a18.627,18.627,0,0,1,4.532-5.8c.419,1.173.906,2.331,1.416,3.486a49.243,49.243,0,0,0-5.948,2.313Zm180.779,6.167s14.02,2.41,15.534,3.775c0,0-14.108-13.421-28.4-22.855,2.836-14.342-1.049-28.587-11.674-37.243-9.89-8.057-23.336-9.4-36.015-4.984a102.573,102.573,0,0,0-23.737-5.38c.046-.118.088-.213.134-.319-.27-.076-.535-.158-.793-.249-.362-.131-.732-.234-1.1-.343-.14.234-.286.471-.419.711-2.933-.249-5.89-.4-8.872-.4-3.27,0-6.507.189-9.72.486-.125-.416-.255-.824-.389-1.225l-.307.006c-.793.112-1.587.225-2.38.322.155.38.313.76.459,1.14a103.115,103.115,0,0,0-22.652,5.306c-12.728-4.492-26.25-3.167-36.179,4.927-10.492,8.546-14.427,22.542-11.792,36.705C135.955,358.96,121.3,372.9,121.3,372.9c1.523-1.365,15.534-3.775,15.534-3.775-7.89,6.775-8.385,26.764-8.385,26.764,1-2.541,3.972-2.571,3.972-2.571.562.869,1.444,10.887,1.444,10.887l1.477.675h12.154c-2.276-9.966-.438-22.524-.438-22.524-1.1,1.237-6.455,2.75-6.455,2.75.45-10.473,9.328-19.032,14.108-22.9a54.92,54.92,0,0,0,6.945,10.963c16.175,19.853,42.7,25.028,59.251,11.543,7.364-6,11.488-14.692,12.394-24.232.906,9.54,5.03,18.233,12.391,24.232,16.546,13.485,43.073,8.309,59.254-11.543a55.079,55.079,0,0,0,6.665-10.419c4.9,4.094,13.023,12.355,13.44,22.357,0,0-5.346-1.514-6.452-2.75,0,0,1.845,12.558-.435,22.524h12.163l1.474-.675s.875-10.017,1.447-10.887c0,0,2.966.03,3.969,2.571,0,0-.5-19.989-8.395-26.764Z" transform="translate(-121.297 -241.346)" fill="#24272c"/>
  <path id="Path_17021" data-name="Path 17021" d="M157.889,330.394c-.866-.024-1.629,2.589-1.705,5.823s.553,5.881,1.416,5.9,1.62-2.583,1.7-5.823-.556-5.881-1.41-5.9Z" transform="translate(-50.167 -181.603)" fill="#24272c"/>
  <path id="Path_17022" data-name="Path 17022" d="M162.043,330.394c-.869-.024-1.629,2.589-1.705,5.823s.547,5.881,1.413,5.9,1.626-2.583,1.7-5.823c.088-3.237-.547-5.881-1.407-5.9Z" transform="translate(-41.697 -181.603)" fill="#24272c"/>
  <path id="Path_17023" data-name="Path 17023" d="M142.73,359.79s-22.533-24.968-.337-47.157c0,0,10.956-8.236,22.813-8.236,0,0-41.137,11.929-22.475,55.394" transform="translate(-98.217 -234.62)" fill="#fff"/>
  <path id="Path_17024" data-name="Path 17024" d="M195.428,359.79s22.536-24.968.331-47.157c0,0-10.948-8.236-22.8-8.236,0,0,41.137,11.929,22.469,55.394" transform="translate(-15.944 -234.62)" fill="#fff"/>
  <path id="Path_17025" data-name="Path 17025" d="M212.469,281.885s-4.72,1.392-15.756,8.525-6.483,14.552-20.169,26.08c-10.312,8.692-14.671,25.171-16.251,34.642A30.105,30.105,0,0,0,159.227,358c-.043,4.623,3.912,2.471,3.912,2.471a6.512,6.512,0,0,0,1.4-2.2l.191-.006a7.89,7.89,0,0,1,.091-1.027l0-.009h0c.711-5.367,5.4-27.469,7.948-31.788,2.817-4.75,11.689-12.236,25.314-19.883s18.819-17.458,19.852-21.518-5.471-2.152-5.471-2.152Z" transform="translate(-43.947 -281.438)" fill="#24272c"/>
  <path id="Path_17026" data-name="Path 17026" d="M195.462,347.524l-.021.1c-4.878-52.437-39.112-61.445-51.789-64.013-12.893-2.611-6.24,7.568-6.24,7.568,6.1,19.539,36.5,17.388,36.5,17.388,17.613,12.738,19.576,48.628,19.576,48.628l0,0,0,0s2.881,1.827,3.076-1.678a29.518,29.518,0,0,0-1.1-8Z" transform="translate(-91.935 -277.873)" fill="#24272c"/>
</svg>
