<svg xmlns="http://www.w3.org/2000/svg" xmlns:xlink="http://www.w3.org/1999/xlink" width="549" height="259" viewBox="0 0 549 259">
  <defs>
    <clipPath id="clip-path">
      <rect id="Rectangle_270" data-name="Rectangle 270" width="549" height="259" transform="translate(12 108.254)" fill="#fff" stroke="#707070" stroke-width="1"/>
    </clipPath>
    <clipPath id="clip-path-2">
      <rect id="Rectangle_159" data-name="Rectangle 159" width="563.814" height="281.907" fill="none"/>
    </clipPath>
  </defs>
  <g id="Mask_Group_100" data-name="Mask Group 100" transform="translate(-12 -108.254)" clip-path="url(#clip-path)">
    <g id="Group_824" data-name="Group 824" transform="translate(4.763 96.218)">
      <g id="Group_338" data-name="Group 338" transform="translate(0 0)">
        <g id="Group_329" data-name="Group 329" transform="translate(0 0)">
          <g id="Group_328" data-name="Group 328" clip-path="url(#clip-path-2)">
            <path id="Path_2353" data-name="Path 2353" d="M361.586,308.605s-.5-10.481-1.3-12.085a5.363,5.363,0,0,0-4.408,2.509s.4-20.949,8.819-28.565c0,0-12.73,1.906-16.137,3.609,0,0,20.647-19.04,31.167-24.856,0,0-4.308-21.045,7.417-34.375,0,0,15.232-21.545,44.3-10.824,0,0,15.633-5.011,23.352-5.512,0,0-3.712-23.047-18.039-33.271,0,0-21.648,1.4-33.977-9.72,0,0-4.106-4.209-5.21-8.918,0,0-6.914-10.426,5.313-8.521,0,0,32.87,3.308,47.8,34.474,0,0,6.913,13.532,8.219,25.357,0,0,12.123-1,17.138-.3,0,0,4.908-19.342,15.935-27.958,0,0,8.918-8.319,9.518-11.126,0,0,4.912-10.824,6.313-11.924s1.405-3.911,21.95-13.933c0,0,10.221-3.2,5.611,4.912,0,0-3.307,10.923-22.546,21.748s-25.257,20.144-25.257,20.144-4.709,12.929-5.313,18.639c0,0,13.227,1.3,24.753,5.813,0,0,23.053-9.22,40.489,6.416s11.427,39.386,11.427,39.386,18.738,12.428,30.262,24.452a159.959,159.959,0,0,0-16.233-3.907s8.72,8.319,8.819,28.562a4.779,4.779,0,0,0-4.212-2.406s-1.5,10.083-1.8,12.085Z" transform="translate(-186.963 -117.835)" fill="none" stroke="#fff" stroke-linejoin="round" stroke-width="3"/>
          </g>
        </g>
        <g id="Group_331" data-name="Group 331" transform="translate(0 0)">
          <g id="Group_330" data-name="Group 330" clip-path="url(#clip-path-2)">
            <path id="Path_2354" data-name="Path 2354" d="M361.586,300.986a20.733,20.733,0,0,0-1.3-4.466,5.363,5.363,0,0,0-4.408,2.509s.4-20.949,8.819-28.565c0,0-12.73,1.906-16.137,3.609,0,0,20.647-19.04,31.167-24.856,0,0-4.308-21.045,7.417-34.375,0,0,15.232-21.545,44.3-10.824,0,0,15.633-5.011,23.352-5.512,0,0-3.712-23.047-18.039-33.271,0,0-21.648,1.4-33.977-9.72,0,0-4.106-4.209-5.21-8.918,0,0-6.914-10.426,5.313-8.521,0,0,32.87,3.308,47.8,34.474,0,0,6.913,13.532,8.219,25.357,0,0,12.123-1,17.138-.3,0,0,4.908-19.342,15.935-27.958,0,0,8.918-8.319,9.518-11.126,0,0,4.912-10.824,6.313-11.924s1.405-3.911,21.95-13.933c0,0,10.221-3.2,5.611,4.912,0,0-3.307,10.923-22.546,21.748s-25.257,20.144-25.257,20.144-4.709,12.929-5.313,18.639c0,0,13.227,1.3,24.753,5.813,0,0,23.053-9.22,40.489,6.416s11.427,39.386,11.427,39.386,18.738,12.428,30.262,24.452a159.959,159.959,0,0,0-16.233-3.907s8.72,8.319,8.819,28.562a4.779,4.779,0,0,0-4.212-2.406,15.042,15.042,0,0,0-1.8,4.466Z" transform="translate(-186.963 -117.835)" fill="#24272c"/>
          </g>
        </g>
        <g id="Group_333" data-name="Group 333" transform="translate(0 0)">
          <g id="Group_332" data-name="Group 332" clip-path="url(#clip-path-2)">
            <path id="Path_2355" data-name="Path 2355" d="M835.324,265.157H312.345a11.327,11.327,0,0,1-11.325-11.325V198.375a11.328,11.328,0,0,1,11.325-11.328H835.324a11.327,11.327,0,0,1,11.324,11.328v55.458a11.327,11.327,0,0,1-11.324,11.325" transform="translate(-291.929 3.624)" fill="#24272c"/>
          </g>
        </g>
        <g id="Group_335" data-name="Group 335" transform="translate(0 0)">
          <g id="Group_334" data-name="Group 334" clip-path="url(#clip-path-2)">
            <path id="Path_2356" data-name="Path 2356" d="M458.835,232.24c-4.039-3.166-8.238-6.1-12.919-9.133,1.152-.2,1.906-.35,2.666-.468a15.835,15.835,0,0,0,12.836-20.246c-1.649-5.643-7.655-11.357-16.271-11.3-23.188.148-46.379.048-69.567.051-.7,0-1.412,0-2.111.071a5.4,5.4,0,0,0-4.847,4.995c-.263,4.049,2.117,6.448,6.487,6.451,14.8.016,29.6.138,44.4-.045a111.051,111.051,0,0,1,24.112,2.262c2.419.5,4.96.725,7.2,2.047a2.483,2.483,0,0,1-1.742.934A99.934,99.934,0,0,1,426,211.388c-14.234.208-28.475.032-42.716.067-7.34.019-12.8,4.411-14.209,11.61-.9,4.655-.244,9.409-.34,14.122a5.743,5.743,0,0,0,5.665,6.082,5.927,5.927,0,0,0,5.762-6.031c.022-3.243-.026-6.487.013-9.73.039-2.871,1.758-4.533,4.636-4.536,8.319-.006,16.634.006,24.952-.006a37.073,37.073,0,0,1,6.493.687c9.583,1.691,18.132,5.845,26.191,11.113,3.59,2.348,7.035,4.921,10.6,7.3a5.655,5.655,0,0,0,9.031-4.254c.157-2.563-1.424-4.145-3.247-5.576" transform="translate(-142.719 12.551)" fill="#f5dd24"/>
            <path id="Path_2357" data-name="Path 2357" d="M409.961,191.1c-8.168.314-16.352.064-24.529.064-8.742,0-17.484.077-26.223-.026a19.256,19.256,0,0,0-15.373,7.051,28.964,28.964,0,0,0-3.908,32.331c3.872,7.43,9.557,12.666,18.437,12.736,17.763.144,35.529.064,53.3.029a18.428,18.428,0,0,0,9.839-2.663c11.251-6.933,15.691-22.55,9.826-35.44C427.2,196.114,420.59,190.7,409.961,191.1m12.81,26.268c-.1,4.825-1.277,9.169-5.521,12.146a13.755,13.755,0,0,1-8.19,2.255c-15.633.013-31.269-.138-46.9.058-10.9.132-15.014-7.879-14.218-16.618a14.221,14.221,0,0,1,2.666-7.664,11.649,11.649,0,0,1,9.592-4.851q12.569-.014,25.142,0c7.677,0,15.37.3,23.028-.083,8.376-.411,14.61,4.969,14.4,14.76" transform="translate(-213.161 12.526)" fill="#f5dd24"/>
            <path id="Path_2358" data-name="Path 2358" d="M492.095,194.139a5.891,5.891,0,0,0-6.654-2.865,5.625,5.625,0,0,0-4.09,5.5c-.167,9.438.353,18.88-.317,28.311-.3,4.145-1.841,5.1-5.39,3.048-5.476-3.166-10.875-6.467-16.275-9.759q-20.437-12.463-40.836-24.988a12.861,12.861,0,0,0-9.852-1.963c-5.47,1.226-8.739,5.784-8.752,12.085q-.029,16.39,0,32.777a12.652,12.652,0,0,0,.215,2.3,5.668,5.668,0,0,0,11.2-.2,34.547,34.547,0,0,0,.189-5.9c.067-7.818.013-15.643.183-23.461.087-3.882,1.771-4.738,5.191-2.971.683.353,1.37.715,2.031,1.113q17.834,10.866,35.661,21.741c6.779,4.138,13.541,8.306,20.336,12.418,3.907,2.358,8,2.688,12.021.43,4.049-2.268,5.816-5.941,5.81-10.526q-.01-8.349,0-16.7,0-8.455.007-16.916a7.357,7.357,0,0,0-.677-3.474" transform="translate(-73.555 12.55)" fill="#f5dd24"/>
            <path id="Path_2359" data-name="Path 2359" d="M393.441,191.372c-3.853-.058-5.948,1.938-5.97,5.755-.026,4.158-.106,8.322.038,12.473.064,1.832-.382,2.335-2.287,2.329-21.353-.077-42.706-.048-64.062-.048-4.033,0-3.988,0-4.045-4.126-.058-4.01.285-8.03-.2-12.03a4.408,4.408,0,0,0-3.2-4.039c-4.809-1.434-8.171.975-8.184,5.951-.042,13.182-.016,26.361-.013,39.536a8.537,8.537,0,0,0,.606,3.5c1.039,2.355,3.3,3.324,6.4,2.778,3.118-.549,4.495-2.018,4.578-5.322.106-4.225.109-8.46-.013-12.685-.045-1.659.417-2.092,2.079-2.079,11.062.077,22.129.039,33.194.039s22.129.035,33.194-.039c1.6-.013,2,.4,1.954,1.97-.119,4.225-.093,8.46-.022,12.685.058,3.638,2.143,5.6,5.71,5.572,3.8-.032,5.723-1.941,5.726-5.688q0-20.4,0-40.807c0-3.786-1.832-5.672-5.476-5.73" transform="translate(-282.033 12.962)" fill="#f5dd24"/>
            <path id="Path_2360" data-name="Path 2360" d="M524.628,191.117q-20.081-.029-40.159-.01-20.076,0-40.159,0c-1.713,0-3.372.067-4.767,1.264a5.8,5.8,0,0,0-1.784,6.294c.882,2.515,3.057,3.962,6.1,3.965,10.92.013,21.841.042,32.761-.035,1.572-.01,1.976.366,1.963,1.957-.077,10.709-.039,21.417-.032,32.129a9.238,9.238,0,0,0,.138,2.092,5.834,5.834,0,0,0,5.906,4.45,5.764,5.764,0,0,0,5.386-5.73c.032-10.776.093-21.558-.048-32.337-.032-2.236.651-2.589,2.675-2.566,10.635.1,21.273.058,31.914.042,3.959-.006,6.448-2.191,6.506-5.64.067-3.648-2.307-5.864-6.4-5.871" transform="translate(9.316 12.582)" fill="#f5dd24"/>
            <path id="Path_2361" data-name="Path 2361" d="M437.348,191.107c-3.388.042-5.569,2.47-5.579,6.262q-.019,9.932,0,19.864,0,9.822,0,19.649a6.343,6.343,0,0,0,.7,3.458,5.8,5.8,0,0,0,6.339,2.643c2.881-.767,4.369-2.737,4.373-5.9q.019-19.864,0-39.723c0-3.9-2.258-6.294-5.826-6.253" transform="translate(-3.24 12.588)" fill="#f5dd24"/>
          </g>
        </g>
        <g id="Group_337" data-name="Group 337" transform="translate(0 0)">
          <g id="Group_336" data-name="Group 336" clip-path="url(#clip-path-2)">
            <path id="Path_2362" data-name="Path 2362" d="M353.414,258.615H561.9a104.243,104.243,0,0,0-208.484,0" transform="translate(-176.241 -67.527)" fill="#f5dd24"/>
            <path id="Path_2363" data-name="Path 2363" d="M473.725,200.354a6.944,6.944,0,0,1-2.464-9.387,6.846,6.846,0,0,1,4.155-3.2,9.459,9.459,0,0,1,1.062-.164c-1.261-9.74-5.665-18.572-13.256-24.757-17.9-14.587-46.62-8.992-64.13,12.505s-17.186,50.733.712,65.32,46.62,8.992,64.126-12.5a57.187,57.187,0,0,0,12.3-26.974,6.506,6.506,0,0,1-2.5-.844" transform="translate(-103.92 -67.756)" fill="#fbae17"/>
            <path id="Path_2364" data-name="Path 2364" d="M441.695,187.43c-.924-1.543-1.723-3.144-2.583-4.719-1.081-1.206-2.14-2.412-3.131-3.683-5.8-7.331-9.98-13-13.24-20.8a68.935,68.935,0,0,0-7.176,4.187c-13.914,9.416-24.625,31.744-17.728,48.949,6.9,17.224,38.337,12.332,38.337,12.332,4.751-.481,19-10.548,20.185-21.321a45.306,45.306,0,0,1-14.664-14.94" transform="translate(-82.899 -60.02)" fill="#bb793a"/>
            <path id="Path_2365" data-name="Path 2365" d="M414.7,193.012a24.857,24.857,0,0,0,1.55-2.948c.083-1.607.1-3.455.01-5.521a24.361,24.361,0,0,1-2.21,8.469Z" transform="translate(-42.358 -1.905)" fill="#bb793a"/>
            <path id="Path_2366" data-name="Path 2366" d="M416.217,180.408a55.18,55.18,0,0,1,8.055,22.819,36.6,36.6,0,0,1,1.79,8.572,27.785,27.785,0,0,0,1.745-8.732,55.167,55.167,0,0,0-8.055-22.861c-3.551-5.611-7.417-6.865-11.119-5.848,2.573.427,5.152,2.21,7.584,6.05" transform="translate(-54.313 -25.104)" fill="#bb793a"/>
            <path id="Path_2367" data-name="Path 2367" d="M415.31,196.991h2.13a22.1,22.1,0,0,0,1.9-14.25,27.07,27.07,0,0,1-4.033,14.25" transform="translate(-39.569 -5.884)" fill="#bb793a"/>
            <path id="Path_2368" data-name="Path 2368" d="M413.508,183.137a59.275,59.275,0,0,1,.308,11.835,25.737,25.737,0,0,0,1.482-3.263,36.6,36.6,0,0,0-1.79-8.572" transform="translate(-43.548 -5.01)" fill="#bb793a"/>
            <path id="Path_2369" data-name="Path 2369" d="M422.058,174.225c-10.381-1.88-20.7,18.732-20.7,18.732l4.828-3.692c3.1-5.133,9.287-13.9,15.874-15.04" transform="translate(-70.381 -24.955)" fill="#000101"/>
            <path id="Path_2370" data-name="Path 2370" d="M398.061,206.146h2.74c2.65-3.462,4.706-6.333,5.964-7.94.218-.279.427-.568.638-.857.732-1.078,1.444-2.13,2.137-3.147a100.342,100.342,0,0,0,7.654-15.607l-3.984,3.048c-1.729,4.071-5.12,11.36-9.181,16.563-1.264,1.607-3.32,4.479-5.967,7.94" transform="translate(-77.656 -15.039)" fill="#24272c"/>
            <path id="Path_2371" data-name="Path 2371" d="M413.67,195.7c-.032.4-.067.792-.1,1.142h1.517a24.344,24.344,0,0,0,2.214-8.466,19.271,19.271,0,0,0-.4-5.569s.016.327,0,.9a27.973,27.973,0,0,1-1.745,8.732,26.023,26.023,0,0,1-1.485,3.266" transform="translate(-43.402 -5.738)" fill="#24272c"/>
            <path id="Path_2372" data-name="Path 2372" d="M400.973,186.6c.738-1,1.453-2.06,2.133-3.144-.69,1.014-1.4,2.066-2.133,3.144" transform="translate(-71.227 -4.297)" fill="#fff"/>
            <path id="Path_2373" data-name="Path 2373" d="M416.348,196.843a22,22,0,0,0,1.8-14.035A27.1,27.1,0,0,1,415.8,193.9a24.865,24.865,0,0,1-1.549,2.948Z" transform="translate(-41.91 -5.736)" fill="#24272c"/>
            <path id="Path_2374" data-name="Path 2374" d="M407.651,204.117c-.68,1.087-1.4,2.143-2.133,3.144-.212.289-.42.581-.638.86-1.258,1.607-3.314,4.479-5.964,7.94h3.426c6.471-9.653,14.167-21.032,15.559-22.607,2.467-2.8,2.31-1.482,3.628-1.482s0-3.462,1.312-5.768,8.075-3.138,11.54,1.646-.5,15.986-3.952,21.587a49.7,49.7,0,0,1-5.075,6.625h4.392c3.93-5.884,8.893-14.616,9.085-21.456,0,0,6.589,13.84,4.937,20.769-.061.25-.122.446-.183.687h2.358c.029-.353.064-.747.1-1.145a59.028,59.028,0,0,0-.308-11.835,55.193,55.193,0,0,0-8.055-22.822c-2.429-3.84-5.008-5.621-7.584-6.05a7.948,7.948,0,0,0-2.643.016c-6.586,1.132-12.778,9.907-15.874,15.04-1.315,2.175-2.072,3.692-2.072,3.692l1.822-1.4,3.984-3.048a100.177,100.177,0,0,1-7.658,15.607" transform="translate(-75.771 -24.953)" fill="#24272c"/>
            <path id="Path_2375" data-name="Path 2375" d="M432.022,180.791c-3.465-4.78-10.221-3.952-11.54-1.646s0,5.768-1.312,5.768-1.161-1.322-3.628,1.482c-1.392,1.575-9.089,12.954-15.559,22.607h23.008a49.25,49.25,0,0,0,5.078-6.625c3.455-5.6,7.414-16.8,3.952-21.587" transform="translate(-73.413 -17.895)" fill="#fff"/>
            <path id="Path_2376" data-name="Path 2376" d="M417.61,180.495c-.2,6.84-5.152,15.572-9.085,21.453h13.837c.064-.237.125-.433.183-.683,1.655-6.933-4.934-20.769-4.934-20.769" transform="translate(-54.551 -10.844)" fill="#24272c"/>
            <path id="Path_2377" data-name="Path 2377" d="M426.047,226.363s-31.459,4.9-38.346-12.325,3.818-39.54,17.731-48.955,41.391-18.549,45-.706-4,28.161-4.129,39.4-15.312,22.091-20.253,22.585" transform="translate(-105.28 -68.918)" fill="#fbae17"/>
            <path id="Path_2378" data-name="Path 2378" d="M371.343,228.283c17.51,21.491,46.219,27.086,64.126,12.5s18.222-43.835.706-65.326-46.216-27.079-64.113-12.492-18.232,43.829-.719,65.32" transform="translate(-165.197 -67.495)" fill="#fbae17"/>
            <path id="Path_2379" data-name="Path 2379" d="M391.71,226.363s31.452,4.9,38.343-12.325-3.821-39.54-17.731-48.955-41.387-18.549-44.987-.706,3.984,28.161,4.116,39.4,15.325,22.091,20.259,22.585" transform="translate(-147.642 -68.918)" fill="#fbae17"/>
            <path id="Path_2380" data-name="Path 2380" d="M371.643,187.43c.93-1.543,1.732-3.144,2.583-4.719,1.078-1.206,2.14-2.412,3.141-3.683,5.794-7.331,9.974-13,13.24-20.8a69.2,69.2,0,0,1,7.173,4.187c13.907,9.416,24.622,31.744,17.738,48.949-6.9,17.224-38.346,12.332-38.346,12.332-4.758-.481-19-10.548-20.185-21.321a45.134,45.134,0,0,0,14.658-14.94" transform="translate(-168.356 -60.02)" fill="#bb793a"/>
            <path id="Path_2381" data-name="Path 2381" d="M573.018,225.787s15.174,2.6,16.81,4.084c0,0-15.267-14.523-30.727-24.734,3.07-15.521-1.136-30.936-12.637-40.3-10.7-8.72-25.254-10.176-38.975-5.4a111.173,111.173,0,0,0-25.687-5.823c.051-.125.1-.231.144-.346-.292-.08-.577-.167-.856-.269-.395-.141-.8-.25-1.193-.369-.151.253-.3.507-.449.77-3.176-.273-6.374-.43-9.6-.43-3.542,0-7.045.2-10.522.529-.135-.456-.276-.9-.417-1.331l-.334.01c-.857.119-1.716.244-2.576.346.17.411.34.821.5,1.235a111.4,111.4,0,0,0-24.513,5.742c-13.776-4.86-28.411-3.429-39.155,5.332-11.353,9.249-15.611,24.394-12.762,39.719-15.761,10.231-31.625,25.318-31.625,25.318,1.652-1.479,16.814-4.084,16.814-4.084-8.537,7.33-9.079,28.963-9.079,28.963,1.084-2.749,4.3-2.785,4.3-2.785.606.94,1.562,11.783,1.562,11.783l1.6.728h13.153c-2.464-10.786-.472-24.375-.472-24.375-1.2,1.341-6.987,2.977-6.987,2.977.484-11.334,10.093-20.593,15.267-24.782a59.686,59.686,0,0,0,7.513,11.863c17.506,21.485,46.219,27.086,64.123,12.5,7.969-6.5,12.431-15.9,13.413-26.226.978,10.324,5.441,19.73,13.41,26.226,17.908,14.59,46.613,8.989,64.123-12.5a59.661,59.661,0,0,0,7.215-11.276c5.3,4.43,14.093,13.371,14.542,24.2,0,0-5.784-1.636-6.981-2.977,0,0,2,13.589-.472,24.375h13.163l1.6-.728s.943-10.843,1.562-11.783c0,0,3.211.035,4.3,2.785,0,0-.542-21.632-9.085-28.963m-195.635-6.676a20.12,20.12,0,0,1,4.9-6.272c.452,1.264.982,2.522,1.533,3.769a53.16,53.16,0,0,0-6.435,2.5m104.959-41.782a56.458,56.458,0,0,0-12.694,30.265,56.493,56.493,0,0,0-12.7-30.265,59.666,59.666,0,0,0-9.367-9.165,98.839,98.839,0,0,1,10.879-1.854l-.112.561H461.7l.042.013-.077-.853c2.708-.221,5.428-.369,8.181-.369q2.555,0,5.091.135c-.032.135-.058.263-.09.4h.911a.451.451,0,0,1,.452-.34,4,4,0,0,1,1.489.356.539.539,0,0,1,.2.876c.128.038.26.074.388.112.08-.379.157-.757.244-1.145a99.172,99.172,0,0,1,13.249,2.056,59.856,59.856,0,0,0-9.435,9.217M555.357,216.9c.5-1.11.95-2.226,1.37-3.349a18.91,18.91,0,0,1,4.164,5.563,54.908,54.908,0,0,0-5.534-2.214m-98.11-39.187c17.25,21.69,16.583,50.928-1.492,65.3s-46.71,8.44-63.96-13.249-16.583-50.925,1.492-65.3,46.71-8.44,63.96,13.249m24.718,0c-17.25,21.69-16.583,50.928,1.492,65.3s46.706,8.44,63.956-13.249,16.583-50.925-1.489-65.3-46.71-8.44-63.96,13.249" transform="translate(-187.226 -73.392)" fill="#24272c"/>
            <path id="Path_2382" data-name="Path 2382" d="M436.018,174.649c17.25,21.69,16.583,50.928-1.492,65.3s-46.71,8.441-63.959-13.249-16.583-50.925,1.492-65.3,46.706-8.44,63.96,13.249" transform="translate(-165.996 -70.33)" fill="#24272c"/>
            <path id="Path_2383" data-name="Path 2383" d="M386.052,182.2c-.937-.026-1.764,2.8-1.845,6.3s.6,6.362,1.53,6.384,1.758-2.794,1.842-6.3-.6-6.365-1.527-6.387" transform="translate(-108.263 -7.07)" fill="#24272c"/>
            <path id="Path_2384" data-name="Path 2384" d="M390.313,182.2c-.94-.026-1.764,2.8-1.848,6.3s.59,6.362,1.53,6.384,1.761-2.794,1.841-6.3-.593-6.365-1.524-6.387" transform="translate(-98.862 -7.07)" fill="#24272c"/>
            <path id="Path_2385" data-name="Path 2385" d="M370.991,215.5s-24.388-27.022-.366-51.034c0,0,11.857-8.915,24.686-8.915,0,0-44.515,12.909-24.321,59.949" transform="translate(-161.605 -65.926)" fill="#fff"/>
            <path id="Path_2386" data-name="Path 2386" d="M425.719,215.5s24.391-27.022.359-51.034c0,0-11.847-8.915-24.673-8.915,0,0,44.519,12.909,24.314,59.949" transform="translate(-70.273 -65.926)" fill="#fff"/>
            <path id="Path_2387" data-name="Path 2387" d="M444.944,132.5s-5.11,1.508-17.051,9.226-7.016,15.749-21.828,28.225c-11.161,9.4-15.874,27.24-17.587,37.486a32.619,32.619,0,0,0-1.152,7.436c-.048,5,4.228,2.672,4.228,2.672a6.97,6.97,0,0,0,1.518-2.384l.209-.006a9.132,9.132,0,0,1,.1-1.11l0-.01,0,0c.77-5.807,5.839-29.726,8.6-34.4,3.051-5.139,12.649-13.243,27.394-21.52s20.365-18.889,21.488-23.281-5.922-2.332-5.922-2.332" transform="translate(-101.358 -117.897)" fill="#24272c"/>
            <path id="Path_2388" data-name="Path 2388" d="M427.879,203.433l-.022.112c-5.277-56.748-42.327-66.5-56.048-69.279-13.949-2.823-6.75,8.19-6.75,8.19,6.6,21.148,39.5,18.819,39.5,18.819,19.059,13.785,21.186,52.625,21.186,52.625l0,0,0,0s3.118,1.976,3.33-1.816a31.963,31.963,0,0,0-1.193-8.652" transform="translate(-154.63 -113.942)" fill="#24272c"/>
          </g>
        </g>
      </g>
    </g>
  </g>
</svg>
