<?xml version="1.0" encoding="utf-8"?>
<!-- Generator: Adobe Illustrator 24.1.2, SVG Export Plug-In . SVG Version: 6.00 Build 0)  -->
<svg version="1.1" id="Layer_1" xmlns="http://www.w3.org/2000/svg" xmlns:xlink="http://www.w3.org/1999/xlink" x="0px" y="0px"
	 viewBox="0 0 525.1 106.6" style="enable-background:new 0 0 525.1 106.6;" xml:space="preserve">
<style type="text/css">
	.st0{fill:#FFD200;}
</style>
<g id="Group_881" transform="translate(165.581 74.212)">
	<path id="Path_21745" class="st0" d="M277.2-30.9c21.4,0,42.9,0,64.3,0c8.5,0,13.3,3.5,13.6,9.8c0.3,6.5-5.1,11-13.8,11
		c-37.5,0.1-75,0.1-112.6,0c-1.4,0-2.7,0-4,0c-3.4,0.1-7.3-1.3-6.8,5c0.6,7.1,0.9,8,7.3,8c40.4,0,80.8,0,121.2,0
		c5.1,0,9.4,0.9,11.9,6c2.5,4.3,1,9.9-3.3,12.4c-1.5,0.9-3.1,1.3-4.8,1.2c-43.5,0.1-86.9,0.1-130.4-0.1c-8.3,0-13.8-5.4-18.1-12.2
		c-6.9-10.9-4.1-23-3.6-34.6c0.2-5.4,6.7-6.6,11.8-6.7c18.9-0.1,37.9,0,56.9,0L277.2-30.9z"/>
	<path id="Path_21746" class="st0" d="M109-64.6c22.4,0,44.8,0,67.2,0c7.2,0,11.8,3.6,12,9.2c0.2,6.1-4.7,10.7-12.1,10.7
		c-16.8,0.1-33.7,0.3-50.5-0.1c-5.2-0.1-6.3,1.3-6.2,6.3c0.3,16.1,0.2,32.2,0.1,48.2c0,8.5-3.6,12.9-10.3,12.9
		c-6.2,0-9.5-3.2-9.5-9.5c0-17.6-0.1-35.2,0.1-52.8c0.1-4.1-1.2-5.1-5.1-5.1c-17.4,0.2-34.8,0.1-52.2,0.1c-7.7,0-11.5-3.6-11.5-10.2
		c0-6.5,3.2-9.7,9.8-9.7C63.5-64.7,86.3-64.7,109-64.6z"/>
	<path id="Path_21747" class="st0" d="M-79.8,22.7c-19.3,0-38.7-0.4-58,0.1c-13.4,0.3-28.4-13.4-27.8-27.6
		c0.8-16.2,0.2-32.5,0.2-48.8c0-6.5,3.8-10.8,9.6-11c5.8-0.3,10.7,4.2,10.9,10c0,0.4,0,0.8,0,1.2c0.1,15.1,0,30.3,0,45.4
		c0,9.4,1.6,11,10.9,11c37.7,0,75.4,0,113.2,0c7.5,0,11.2,3,11.5,8.9C-9,18.9-12.6,22.6-20,22.6C-39.9,22.7-59.9,22.7-79.8,22.7z"/>
	<path id="Path_21748" class="st0" d="M278.5-64.6c23.2,0,46.3,0,69.5,0c6.6,0,11.5,4.2,11.6,9.8c0.1,5.7-4.7,10.1-11.3,10.1
		c-46.3,0-92.6,0-138.9,0c-7,0-11.5-3.8-11.6-9.7c-0.1-5.6,5.3-10.2,11.9-10.2C232.6-64.6,255.5-64.6,278.5-64.6z"/>
	<path id="Path_21749" class="st0" d="M20.4-21c0,11.5,0,22.9,0,34.4c0,6.5-3.1,9.3-10.1,9.3c-4.6,0.5-8.8-2.8-9.3-7.4
		c-0.1-0.7-0.1-1.3,0-2c0-22.7,0-45.5,0-68.2c0-6.5,3.3-9.7,9.7-9.7c6.6,0,9.7,3.1,9.7,9.8C20.5-43.6,20.4-32.3,20.4-21z"/>
</g>
</svg>
