<?xml version="1.0" encoding="utf-8"?>
<!-- Generator: Adobe Illustrator 24.1.2, SVG Export Plug-In . SVG Version: 6.00 Build 0)  -->
<svg version="1.1" id="Layer_1" xmlns="http://www.w3.org/2000/svg" xmlns:xlink="http://www.w3.org/1999/xlink" x="0px" y="0px"
	 viewBox="0 0 530 59.8" style="enable-background:new 0 0 530 59.8;" xml:space="preserve">
<style type="text/css">
	.st0{fill:#FFD200;}
</style>
<g id="Group_880" transform="translate(262.323 216.434)">
	<path id="Path_21734" class="st0" d="M-6.2-164.3c0,1.7,0.7,3.3,2,4.4c2.8,2.4,7,2.4,9.8,0c1.3-1.1,2-2.7,2-4.4v-33.1
		c0-2.4-0.5-4.7-1.5-6.8c-1-2.1-2.4-4-4.2-5.5c-1.8-1.6-3.9-2.9-6.2-3.7c-2.4-0.9-5-1.4-7.6-1.4H-12c-1.8,0-3.6,0.6-4.9,1.8
		c-2.4,2.1-2.7,5.8-0.6,8.3c0.2,0.2,0.4,0.4,0.6,0.6c1.3,1.2,3.1,1.9,4.9,1.8h0.2c1.4,0,2.8,0.5,3.8,1.5c1,0.9,1.6,2.1,1.7,3.5
		L-6.2-164.3z"/>
	<path id="Path_21735" class="st0" d="M36-192.4v-16.3c0-1.7-0.7-3.3-2-4.4c-2.8-2.4-7-2.4-9.8,0c-1.3,1.1-2,2.7-2,4.4v16.3
		c0,2.4,0.5,4.7,1.6,6.8c1.1,2.1,2.5,4,4.3,5.5c3.9,3.3,8.9,5.1,14,5.1h79.5v10.7c0,1.7,0.8,3.3,2.1,4.4c2.8,2.4,7,2.4,9.8,0
		c1.3-1.1,2-2.7,2-4.4v-44.4c0-1.7-0.7-3.3-2-4.4c-2.8-2.4-7-2.4-9.8,0c-1.3,1.1-2,2.7-2,4.4v21.1H41.4c-1.4,0-2.8-0.5-3.8-1.4
		C36.6-189.7,35.9-191,36-192.4"/>
	<path id="Path_21736" class="st0" d="M253.9-186.5c0,1.7-0.2,3.5-0.6,5.2c-0.4,1.9-1.3,3.6-2.5,5.2c-1.3,1.7-3,3-5,4
		c-2.5,1.2-5.3,1.7-8.1,1.6h-58.1c-2.8,0.1-5.6-0.4-8.2-1.6c-1.9-1-3.6-2.3-4.9-4c-1.2-1.5-2-3.3-2.5-5.2c-0.9-3.4-0.9-6.9,0-10.3
		c0.4-1.9,1.3-3.6,2.5-5.2c1.3-1.7,3-3,4.9-4c2.6-1.2,5.4-1.7,8.2-1.6h58.1c2.8-0.1,5.6,0.5,8.1,1.6c1.9,0.9,3.6,2.3,5,4
		c1.2,1.5,2,3.3,2.5,5.2C253.7-190,253.9-188.2,253.9-186.5 M267.5-186.5c0-3.3-0.6-6.6-1.7-9.8c-1.1-3.3-2.8-6.3-5-9
		c-2.2-2.7-4.9-5-7.9-6.7c-3.2-1.8-6.8-2.8-10.6-2.9h-65.9c-3.9-0.1-7.7,0.8-11.1,2.6c-3.2,1.7-6,4-8.4,6.7
		c-4.5,5.4-7,12.1-7.1,19.1c0.1,6.9,2.5,13.6,6.7,19.1c2.2,2.7,4.8,5,7.9,6.7c3.2,1.8,6.9,2.7,10.6,2.6h65.9
		c3.9,0.1,7.7-0.8,11.1-2.6c3.2-1.7,6-4,8.4-6.7C264.9-172.8,267.4-179.5,267.5-186.5"/>
	<path id="Path_21737" class="st0" d="M-39.6-175.4c0,1.3-0.6,2.6-1.7,3.4c-1.1,0.9-2.4,1.4-3.8,1.4h-75.7c-1.2,0.1-2.3-0.3-3.3-1
		c-0.7-0.5-1.2-1.4-1.2-2.3v-6.4h80.2c1.4,0,2.8,0.5,3.8,1.4C-40.2-178-39.6-176.8-39.6-175.4 M-39.6-197.5c0,1.3-0.6,2.6-1.6,3.4
		c-1.1,0.9-2.4,1.3-3.8,1.3h-80.4v-9.6h80.3c1.4,0,2.8,0.5,3.8,1.5C-40.3-200.1-39.7-198.8-39.6-197.5 M-27.4-191.4
		c0.8-1.9,1.2-4,1.2-6.1c0-2.4-0.5-4.7-1.5-6.8c-1-2.1-2.4-4-4.2-5.5c-1.8-1.6-3.9-2.9-6.2-3.7c-2.4-0.9-5-1.4-7.6-1.4h-86.6
		c-1.8,0-3.6,0.6-4.9,1.8c-1.1,0.9-1.8,2.2-1.9,3.7h-0.1v0.7c0,0,0,0.1,0,0.1c0,0,0,0.1,0,0.1v21.6c0,0,0,0.1,0,0.1v11.7
		c0,2.4,0.5,4.9,1.6,7c2,4,5.5,7.2,9.7,8.8c2,0.8,4.2,1.2,6.4,1.2h75.9c2.6,0,5.2-0.4,7.6-1.4c2.3-0.9,4.4-2.1,6.2-3.7
		c1.7-1.5,3.2-3.4,4.2-5.5c1-2.1,1.5-4.4,1.5-6.8c0-2-0.4-4.1-1.2-5.9c-0.8-1.8-1.9-3.5-3.3-5C-29.3-187.9-28.2-189.6-27.4-191.4"/>
	<path id="Path_21738" class="st0" d="M-149.1-176v-31.1c0.1-0.3,0.1-0.6,0.1-0.9c0-3.8-3.1-7-6.9-7c-3.8,0-6.8,3-7,6.7h0v0.1
		c0,0,0,0.1,0,0.1c0,0,0,0.1,0,0.1v15.7h-2.9c-0.1,0-0.3,0-0.4,0s-0.3,0-0.4,0h-78c-0.1,0-0.3,0-0.4,0c-0.1,0-0.3,0-0.4,0h-0.2v0
		c-9.4,0.3-16.8,8.2-16.5,17.6c0.3,9,7.5,16.2,16.5,16.5v0h0.5c0,0,0.1,0,0.1,0c0.1,0,0.1,0,0.1,0h78.1v0c0.2,0,0.4,0.1,0.6,0.1
		c9.4,0,17.1-7.7,17.1-17.1C-149.1-175.4-149.1-175.7-149.1-176L-149.1-176z M-163-173.9c0,0.9-0.5,1.8-1.2,2.3
		c-0.9,0.7-2.1,1-3.3,1h-75.7c-1.4,0-2.8-0.5-3.8-1.4c-1-0.8-1.7-2.1-1.7-3.4c0-1.3,0.6-2.6,1.7-3.5c1.1-0.9,2.4-1.4,3.8-1.4h80.2
		V-173.9z"/>
</g>
</svg>
