<?xml version="1.0"?>
<svg xmlns="http://www.w3.org/2000/svg" id="Capa_1" enable-background="new 0 0 512 512" height="512px" viewBox="0 0 512 512" width="512px"><g><g><g><path d="m19.98 451h191.02v-142.55zm321.2-240h170.82v-127.48zm-40.18-150v142.55l191.02-142.55zm-15 180c-8.28 0-15-6.72-15-15v-165h-30v165c0 8.28-6.72 15-15 15h-226v30h226c8.28 0 15 6.72 15 15v165h30v-165c0-8.28 6.72-15 15-15h226v-30zm-75-180h-191.02l191.02 142.55zm130.18 240 170.82 127.48v-127.48zm-40.18 7.45v142.55h191.02zm-301-7.45v127.48l170.82-127.48zm0-217.48v127.48h170.82z" fill="#FFD200"/></g></g></g></svg>
