<svg xmlns="http://www.w3.org/2000/svg" width="183" height="96" viewBox="0 0 183 96"><g transform="translate(0 -85.33)"><rect width="183" height="96" transform="translate(0 85.33)" fill="#f0f0f0"/><path d="M102.938,85.33H80.063v39H0v18H80.063v39h22.875v-39H183v-18H102.938Z" fill="#d80027"/><g transform="translate(111.391 150.024)"><path d="M393.785,315.358l42.253,18.471V315.358Z" transform="translate(-364.429 -315.358)" fill="#0052b4"/><path d="M311.652,315.358l71.609,31.3V337.81L331.9,315.358Z" transform="translate(-311.652 -315.358)" fill="#0052b4"/><path d="M364.187,367.966,311.652,345v22.968Z" transform="translate(-311.652 -336.662)" fill="#0052b4"/></g><path d="M311.652,315.358l71.609,31.3V337.81L331.9,315.358Z" transform="translate(-200.261 -165.334)" fill="#f0f0f0"/><path d="M311.652,315.358l71.609,31.3V337.81L331.9,315.358Z" transform="translate(-200.261 -165.334)" fill="#d80027"/><g transform="translate(0 150.024)"><path d="M32.29,315.356,0,329.472V315.356Z" transform="translate(0 -315.356)" fill="#0052b4"/><path d="M87.989,329.51v27.323h-62.5Z" transform="translate(-16.38 -325.529)" fill="#0052b4"/></g><path d="M51.359,315.358,0,337.81v8.852H0l71.609-31.3Z" transform="translate(0 -165.334)" fill="#d80027"/><g transform="translate(0 85.33)"><path d="M42.253,149.429,0,130.958v18.471Z" transform="translate(0 -118.125)" fill="#0052b4"/><path d="M71.609,116.634,0,85.33v8.852l51.359,22.452Z" transform="translate(0 -85.33)" fill="#0052b4"/><path d="M53.366,85.33,105.9,108.3V85.33Z" transform="translate(-34.292 -85.33)" fill="#0052b4"/></g><path d="M71.609,116.634,0,85.33v8.852l51.359,22.452Z" fill="#f0f0f0"/><path d="M71.609,116.634,0,85.33v8.852l51.359,22.452Z" fill="#d80027"/><g transform="translate(111.391 85.33)"><path d="M421.659,160.562l32.29-14.116v14.116Z" transform="translate(-382.34 -129.258)" fill="#0052b4"/><path d="M311.652,112.654V85.331h62.5Z" transform="translate(-311.652 -85.331)" fill="#0052b4"/></g><path d="M331.9,116.634l51.359-22.452V85.33h0l-71.609,31.3Z" transform="translate(-200.261)" fill="#d80027"/></g></svg>