<svg xmlns="http://www.w3.org/2000/svg" width="183.023" height="96" viewBox="0 0 183.023 96"><rect width="183" height="96" fill="#bf0a30"/><rect width="183.023" height="7.41" transform="translate(0 81.508)" fill="#fff"/><rect width="183.023" height="7.41" transform="translate(0 66.688)" fill="#fff"/><rect width="183.023" height="7.41" transform="translate(0 51.873)" fill="#fff"/><rect width="183.023" height="7.41" transform="translate(0 37.049)" fill="#fff"/><rect width="183.023" height="7.41" transform="translate(0 22.23)" fill="#fff"/><rect width="183.023" height="7.41" transform="translate(0 7.41)" fill="#fff"/><g transform="translate(0 0.004)"><rect width="73.209" height="51.869" fill="#002868"/><g transform="translate(3.849 3.986)"><path d="M135.055,8.284l.67,2.063h2.17l-1.755,1.275.67,2.064-1.755-1.275L133.3,13.687l.67-2.064-1.755-1.275h2.169Z" transform="translate(-72.384 -8.284)" fill="#fff"/><path d="M117.309,8.284l.67,2.063h2.17l-1.755,1.275.67,2.064-1.755-1.275-1.755,1.275.67-2.064-1.755-1.275h2.169Z" transform="translate(-63.185 -8.284)" fill="#fff"/><path d="M99.563,8.284l.67,2.063h2.17l-1.755,1.275.67,2.064-1.755-1.275-1.755,1.275.67-2.064-1.755-1.275h2.169Z" transform="translate(-53.987 -8.284)" fill="#fff"/><path d="M81.817,8.284l.67,2.063h2.17L82.9,11.623l.67,2.064-1.755-1.275-1.755,1.275.67-2.064-1.755-1.275h2.169Z" transform="translate(-44.788 -8.284)" fill="#fff"/><path d="M64.07,8.284l.67,2.063H66.91l-1.755,1.275.67,2.064L64.07,12.411l-1.755,1.275.67-2.064L61.23,10.347H63.4Z" transform="translate(-35.588 -8.284)" fill="#fff"/><path d="M46.324,8.284l.67,2.063h2.169l-1.755,1.275.67,2.064-1.755-1.275-1.755,1.275.67-2.064-1.755-1.275h2.17Z" transform="translate(-26.39 -8.284)" fill="#fff"/><path d="M28.578,8.284l.67,2.063h2.169l-1.755,1.275.67,2.064-1.755-1.275-1.755,1.275.67-2.064-1.755-1.275h2.17Z" transform="translate(-17.191 -8.284)" fill="#fff"/><path d="M10.832,8.284l.67,2.063h2.169l-1.755,1.275.67,2.064-1.755-1.275L9.077,13.687l.67-2.064L7.992,10.347h2.17Z" transform="translate(-7.992 -8.284)" fill="#fff"/></g><g transform="translate(3.849 11.589)"><path d="M135.055,24.069l.67,2.063h2.17l-1.755,1.275.67,2.064L135.055,28.2,133.3,29.472l.67-2.064-1.755-1.275h2.169Z" transform="translate(-72.384 -24.069)" fill="#fff"/><path d="M117.309,24.069l.67,2.063h2.17l-1.755,1.275.67,2.064L117.309,28.2l-1.755,1.276.67-2.064-1.755-1.275h2.169Z" transform="translate(-63.185 -24.069)" fill="#fff"/><path d="M99.563,24.069l.67,2.063h2.17l-1.755,1.275.67,2.064L99.563,28.2l-1.755,1.276.67-2.064-1.755-1.275h2.169Z" transform="translate(-53.987 -24.069)" fill="#fff"/><path d="M81.817,24.069l.67,2.063h2.17L82.9,27.407l.67,2.064L81.817,28.2l-1.755,1.276.67-2.064-1.755-1.275h2.169Z" transform="translate(-44.788 -24.069)" fill="#fff"/><path d="M64.07,24.069l.67,2.063H66.91l-1.755,1.275.67,2.064L64.07,28.2l-1.755,1.276.67-2.064L61.23,26.132H63.4Z" transform="translate(-35.588 -24.069)" fill="#fff"/><path d="M46.324,24.069l.67,2.063h2.169l-1.755,1.275.67,2.064L46.324,28.2l-1.755,1.276.67-2.064-1.755-1.275h2.17Z" transform="translate(-26.39 -24.069)" fill="#fff"/><path d="M28.578,24.069l.67,2.063h2.169l-1.755,1.275.67,2.064L28.578,28.2l-1.755,1.276.67-2.064-1.755-1.275h2.17Z" transform="translate(-17.191 -24.069)" fill="#fff"/><path d="M10.832,24.069l.67,2.063h2.169l-1.755,1.275.67,2.064L10.832,28.2,9.077,29.472l.67-2.064L7.992,26.132h2.17Z" transform="translate(-7.992 -24.069)" fill="#fff"/></g><g transform="translate(3.849 19.191)"><path d="M135.055,39.854l.67,2.063h2.17l-1.755,1.275.67,2.064-1.755-1.275L133.3,45.256l.67-2.064-1.755-1.275h2.169Z" transform="translate(-72.384 -39.854)" fill="#fff"/><path d="M117.309,39.854l.67,2.063h2.17l-1.755,1.275.67,2.064-1.755-1.275-1.755,1.275.67-2.064-1.755-1.275h2.169Z" transform="translate(-63.185 -39.854)" fill="#fff"/><path d="M99.563,39.854l.67,2.063h2.17l-1.755,1.275.67,2.064-1.755-1.275-1.755,1.275.67-2.064-1.755-1.275h2.169Z" transform="translate(-53.987 -39.854)" fill="#fff"/><path d="M81.817,39.854l.67,2.063h2.17L82.9,43.192l.67,2.064-1.755-1.275-1.755,1.275.67-2.064-1.755-1.275h2.169Z" transform="translate(-44.788 -39.854)" fill="#fff"/><path d="M64.07,39.854l.67,2.063H66.91l-1.755,1.275.67,2.064L64.07,43.981l-1.755,1.275.67-2.064L61.23,41.917H63.4Z" transform="translate(-35.588 -39.854)" fill="#fff"/><path d="M46.324,39.854l.67,2.063h2.169l-1.755,1.275.67,2.064-1.755-1.275-1.755,1.275.67-2.064-1.755-1.275h2.17Z" transform="translate(-26.39 -39.854)" fill="#fff"/><path d="M28.578,39.854l.67,2.063h2.169l-1.755,1.275.67,2.064-1.755-1.275-1.755,1.275.67-2.064-1.755-1.275h2.17Z" transform="translate(-17.191 -39.854)" fill="#fff"/><path d="M10.832,39.854l.67,2.063h2.169l-1.755,1.275.67,2.064-1.755-1.275L9.077,45.256l.67-2.064L7.992,41.917h2.17Z" transform="translate(-7.992 -39.854)" fill="#fff"/></g><g transform="translate(3.849 34.396)"><path d="M135.055,71.422l.67,2.064h2.17l-1.755,1.275.67,2.064-1.755-1.275L133.3,76.825l.67-2.064-1.755-1.275h2.169Z" transform="translate(-72.384 -71.422)" fill="#fff"/><path d="M117.309,71.422l.67,2.064h2.17l-1.755,1.275.67,2.064-1.755-1.275-1.755,1.275.67-2.064-1.755-1.275h2.169Z" transform="translate(-63.185 -71.422)" fill="#fff"/><path d="M99.563,71.422l.67,2.064h2.17l-1.755,1.275.67,2.064-1.755-1.275-1.755,1.275.67-2.064-1.755-1.275h2.169Z" transform="translate(-53.987 -71.422)" fill="#fff"/><path d="M81.817,71.422l.67,2.064h2.17L82.9,74.761l.67,2.064-1.755-1.275-1.755,1.275.67-2.064-1.755-1.275h2.169Z" transform="translate(-44.788 -71.422)" fill="#fff"/><path d="M64.07,71.422l.67,2.064H66.91l-1.755,1.275.67,2.064L64.07,75.549l-1.755,1.275.67-2.064L61.23,73.486H63.4Z" transform="translate(-35.588 -71.422)" fill="#fff"/><path d="M46.324,71.422l.67,2.064h2.169l-1.755,1.275.67,2.064-1.755-1.275-1.755,1.275.67-2.064-1.755-1.275h2.17Z" transform="translate(-26.39 -71.422)" fill="#fff"/><path d="M28.578,71.422l.67,2.064h2.169l-1.755,1.275.67,2.064-1.755-1.275-1.755,1.275.67-2.064-1.755-1.275h2.17Z" transform="translate(-17.191 -71.422)" fill="#fff"/><path d="M10.832,71.422l.67,2.064h2.169l-1.755,1.275.67,2.064-1.755-1.275L9.077,76.825l.67-2.064L7.992,73.486h2.17Z" transform="translate(-7.992 -71.422)" fill="#fff"/></g><g transform="translate(3.849 26.794)"><path d="M135.055,55.638l.67,2.064h2.17l-1.755,1.274.67,2.064-1.755-1.275L133.3,61.04l.67-2.064L132.215,57.7h2.169Z" transform="translate(-72.384 -55.638)" fill="#fff"/><path d="M117.309,55.638l.67,2.064h2.17l-1.755,1.274.67,2.064-1.755-1.275-1.755,1.275.67-2.064L114.469,57.7h2.169Z" transform="translate(-63.185 -55.638)" fill="#fff"/><path d="M99.563,55.638l.67,2.064h2.17l-1.755,1.274.67,2.064-1.755-1.275L97.808,61.04l.67-2.064L96.723,57.7h2.169Z" transform="translate(-53.987 -55.638)" fill="#fff"/><path d="M81.817,55.638l.67,2.064h2.17L82.9,58.976l.67,2.064-1.755-1.275L80.062,61.04l.67-2.064L78.977,57.7h2.169Z" transform="translate(-44.788 -55.638)" fill="#fff"/><path d="M64.07,55.638l.67,2.064H66.91l-1.755,1.274.67,2.064L64.07,59.765,62.315,61.04l.67-2.064L61.23,57.7H63.4Z" transform="translate(-35.588 -55.638)" fill="#fff"/><path d="M46.324,55.638l.67,2.064h2.169l-1.755,1.274.67,2.064-1.755-1.275L44.569,61.04l.67-2.064L43.484,57.7h2.17Z" transform="translate(-26.39 -55.638)" fill="#fff"/><path d="M28.578,55.638l.67,2.064h2.169l-1.755,1.274.67,2.064-1.755-1.275L26.823,61.04l.67-2.064L25.738,57.7h2.17Z" transform="translate(-17.191 -55.638)" fill="#fff"/><path d="M10.832,55.638,11.5,57.7h2.169l-1.755,1.274.67,2.064-1.755-1.275L9.077,61.04l.67-2.064L7.992,57.7h2.17Z" transform="translate(-7.992 -55.638)" fill="#fff"/></g><g transform="translate(3.849 41.999)"><path d="M135.055,87.207l.67,2.063h2.17l-1.755,1.275.67,2.064-1.755-1.276L133.3,92.61l.67-2.064-1.755-1.275h2.169Z" transform="translate(-72.384 -87.207)" fill="#fff"/><path d="M117.309,87.207l.67,2.063h2.17l-1.755,1.275.67,2.064-1.755-1.276-1.755,1.276.67-2.064-1.755-1.275h2.169Z" transform="translate(-63.185 -87.207)" fill="#fff"/><path d="M99.563,87.207l.67,2.063h2.17l-1.755,1.275.67,2.064-1.755-1.276L97.808,92.61l.67-2.064L96.723,89.27h2.169Z" transform="translate(-53.987 -87.207)" fill="#fff"/><path d="M81.817,87.207l.67,2.063h2.17L82.9,90.546l.67,2.064-1.755-1.276L80.062,92.61l.67-2.064L78.977,89.27h2.169Z" transform="translate(-44.788 -87.207)" fill="#fff"/><path d="M64.07,87.207l.67,2.063H66.91l-1.755,1.275.67,2.064L64.07,91.334,62.315,92.61l.67-2.064L61.23,89.27H63.4Z" transform="translate(-35.588 -87.207)" fill="#fff"/><path d="M46.324,87.207l.67,2.063h2.169l-1.755,1.275.67,2.064-1.755-1.276L44.569,92.61l.67-2.064L43.484,89.27h2.17Z" transform="translate(-26.39 -87.207)" fill="#fff"/><path d="M28.578,87.207l.67,2.063h2.169l-1.755,1.275.67,2.064-1.755-1.276L26.823,92.61l.67-2.064L25.738,89.27h2.17Z" transform="translate(-17.191 -87.207)" fill="#fff"/><path d="M10.832,87.207l.67,2.063h2.169l-1.755,1.275.67,2.064-1.755-1.276L9.077,92.61l.67-2.064L7.992,89.27h2.17Z" transform="translate(-7.992 -87.207)" fill="#fff"/></g></g></svg>