<?xml version="1.0"?>
<svg xmlns="http://www.w3.org/2000/svg" height="512px" viewBox="0 0 192 192" width="512px"><g id="_21-reliable" data-name="21-reliable"><g id="Glyph"><path d="m168 16c-21.482 0-58.006-5.32-66.343-13.657a8 8 0 0 0 -11.314 0c-8.337 8.337-44.861 13.657-66.343 13.657a8 8 0 0 0 -8 8v88c0 10.776 12.25 20.08 33.9 35.6 15.174 10.868 38.1 27.3 38.1 36.4a8 8 0 0 0 16 0c0-9.1 22.926-25.532 38.1-36.4 21.65-15.52 33.9-24.824 33.9-35.6v-88a8 8 0 0 0 -8-8zm-16 89.953a8 8 0 0 1 -2.6 5.9c-4.942 4.523-14.384 11.29-21.278 16.23-9.254 6.632-18.819 13.485-26.838 20.54a8 8 0 0 1 -10.568 0c-8.019-7.055-17.584-13.908-26.833-20.536-6.9-4.944-16.341-11.711-21.283-16.234a8 8 0 0 1 -2.6-5.9v-59.386a8 8 0 0 1 7.164-7.956c5.871-.617 11.609-1.4 17.055-2.343 11.82-2.039 21.19-4.574 28.644-7.751a8 8 0 0 1 6.274 0c7.454 3.177 16.824 5.712 28.645 7.751 5.445.938 11.183 1.726 17.054 2.343a8 8 0 0 1 7.164 7.956z" fill="#FFD200"/><path d="m86.335 93.275-17.9-11.931-8.872 13.312 24 16a8 8 0 0 0 10.684-1.656l32-40-12.494-10z" fill="#FFD200"/></g></g></svg>
